<?xml version="1.0" encoding="UTF-8" standalone="no"?>
<!-- Created with Inkscape (http://www.inkscape.org/) -->

<svg
   xmlns:dc="http://purl.org/dc/elements/1.1/"
   xmlns:cc="http://creativecommons.org/ns#"
   xmlns:rdf="http://www.w3.org/1999/02/22-rdf-syntax-ns#"
   xmlns:svg="http://www.w3.org/2000/svg"
   xmlns="http://www.w3.org/2000/svg"
   xmlns:sodipodi="http://sodipodi.sourceforge.net/DTD/sodipodi-0.dtd"
   xmlns:inkscape="http://www.inkscape.org/namespaces/inkscape"
   width="210mm"
   height="297mm"
   viewBox="0 0 210 297"
   version="1.1"
   id="svg8"
   inkscape:version="0.92.1 r15371"
   sodipodi:docname="Speaking into microphone.svg">
  <defs
     id="defs2" />
  <sodipodi:namedview
     id="base"
     pagecolor="#ffffff"
     bordercolor="#666666"
     borderopacity="1.0"
     inkscape:pageopacity="0.0"
     inkscape:pageshadow="2"
     inkscape:zoom="1.4"
     inkscape:cx="162.9884"
     inkscape:cy="560"
     inkscape:document-units="mm"
     inkscape:current-layer="layer1"
     showgrid="false"
     inkscape:window-width="2560"
     inkscape:window-height="1377"
     inkscape:window-x="1592"
     inkscape:window-y="-8"
     inkscape:window-maximized="1" />
  <metadata
     id="metadata5">
    <rdf:RDF>
      <cc:Work
         rdf:about="">
        <dc:format>image/svg+xml</dc:format>
        <dc:type
           rdf:resource="http://purl.org/dc/dcmitype/StillImage" />
        <dc:title></dc:title>
      </cc:Work>
    </rdf:RDF>
  </metadata>
  <g
     inkscape:label="Layer 1"
     inkscape:groupmode="layer"
     id="layer1">
    <path
       style="fill:#fcca01;fill-opacity:1;stroke:#fcca01;stroke-width:0;stroke-miterlimit:4;stroke-dasharray:none;stroke-opacity:1"
       d="M 355.84766,234.88086 359,235.45508 c -1.04765,-0.20991 -2.09858,-0.40134 -3.15234,-0.57422 z M 326.16602,235 c -46.24878,7.75667 -80.29738,49.64002 -80.35547,98.8457 2.3e-4,55.35131 42.70879,100.22237 95.39257,100.22266 52.68455,8.5e-4 95.39431,-44.87054 95.39454,-100.22266 -0.0335,-42.03276 -25.02751,-79.5779 -62.59571,-94.02929 l -10.42968,58.41797 v 0 c 6.61467,7.17518 5.69936,15.59848 5.71289,25.35742 -4.6e-4,21.49977 -17.42992,38.92835 -38.92969,38.92773 -21.499,-4.6e-4 -38.92728,-17.42873 -38.92774,-38.92773 0.007,-16.19384 10.03935,-30.69175 25.19141,-36.40625 z"
       transform="scale(0.26458333)"
       id="path4500"
       inkscape:connector-curvature="0"
       sodipodi:nodetypes="ccccccccccccccc" />
    <path
       style="fill:#fcca01;fill-opacity:1;fill-rule:evenodd;stroke:#000000;stroke-width:0;stroke-linecap:butt;stroke-linejoin:miter;stroke-miterlimit:4;stroke-dasharray:none;stroke-opacity:1"
       d="m 86.298092,62.177083 1.959348,-10.294644 12.28423,1.889882 -1.586989,9.679103 z"
       id="path4517"
       inkscape:connector-curvature="0"
       sodipodi:nodetypes="ccccc" />
    <path
       style="fill:#fcca01;fill-opacity:1;stroke:#414141;stroke-width:0;stroke-miterlimit:4;stroke-dasharray:none;stroke-opacity:1"
       id="path4525"
       sodipodi:type="arc"
       sodipodi:cx="127.0945"
       sodipodi:cy="167.73215"
       sodipodi:rx="18.709818"
       sodipodi:ry="18.709818"
       sodipodi:start="3.1082717"
       sodipodi:end="0.041838438"
       d="m 108.39507,168.35546 a 18.709818,18.709818 0 0 1 9.21087,-16.74859 18.709818,18.709818 0 0 1 19.11411,0.0814 18.709818,18.709818 0 0 1 9.06789,16.82644"
       sodipodi:open="true" />
    <path
       style="fill:#fcca01;fill-opacity:1;stroke:#414141;stroke-width:0;stroke-miterlimit:4;stroke-dasharray:none;stroke-opacity:1"
       id="path4529"
       sodipodi:type="arc"
       sodipodi:cx="86.088661"
       sodipodi:cy="167.86409"
       sodipodi:rx="36.75816"
       sodipodi:ry="52.765488"
       sodipodi:start="3.1082743"
       sodipodi:end="0.041838509"
       sodipodi:open="true"
       d="m 49.350903,169.62182 a 36.75816,52.765488 0 0 1 18.096171,-47.23434 36.75816,52.765488 0 0 1 37.552416,0.22964 36.75816,52.765488 0 0 1 17.81516,47.45396"
       transform="matrix(1,0,-0.15643447,0.98768834,0,0)" />
    <path
       style="fill:#fcca01;fill-opacity:1;stroke:#414141;stroke-width:0;stroke-miterlimit:4;stroke-dasharray:none;stroke-opacity:1"
       id="path4525-6"
       sodipodi:type="arc"
       sodipodi:cx="168.23044"
       sodipodi:cy="95.461945"
       sodipodi:rx="13.449195"
       sodipodi:ry="13.449195"
       sodipodi:start="3.1082717"
       sodipodi:end="0.041838438"
       d="m 154.78871,95.910002 a 13.449195,13.449195 0 0 1 6.62106,-12.039407 13.449195,13.449195 0 0 1 13.73981,0.05851 13.449195,13.449195 0 0 1 6.51828,12.095364"
       sodipodi:open="true" />
    <rect
       style="fill:#fcca01;fill-opacity:1;stroke:#fcca01;stroke-width:0;stroke-linecap:square;stroke-linejoin:miter;stroke-miterlimit:0;stroke-dasharray:none;stroke-opacity:1;paint-order:fill markers stroke"
       id="rect4550"
       width="26.836309"
       height="17.197916"
       x="154.78871"
       y="95.910004" />
    <path
       style="fill:#fcca01;fill-opacity:1;stroke:#414141;stroke-width:0;stroke-miterlimit:4;stroke-dasharray:none;stroke-opacity:1"
       id="path4525-6-9"
       sodipodi:type="arc"
       sodipodi:cx="168.23044"
       sodipodi:cy="-130.75391"
       sodipodi:rx="13.449195"
       sodipodi:ry="13.449195"
       sodipodi:start="3.1082717"
       sodipodi:end="0.041838438"
       d="m 154.78871,-130.30585 a 13.449195,13.449195 0 0 1 6.62106,-12.03941 13.449195,13.449195 0 0 1 13.73981,0.0585 13.449195,13.449195 0 0 1 6.51828,12.09536"
       sodipodi:open="true"
       transform="scale(1,-1)" />
    <rect
       style="fill:#fcca01;fill-opacity:1;stroke:#fcca01;stroke-width:0;stroke-linecap:square;stroke-linejoin:miter;stroke-miterlimit:0;stroke-dasharray:none;stroke-opacity:1;paint-order:fill markers stroke"
       id="rect4550-4"
       width="26.836309"
       height="13.229166"
       x="154.78871"
       y="-130.30583"
       transform="scale(1,-1)" />
    <path
       style="fill:#fcca01;fill-opacity:0;stroke:#fcca01;stroke-width:3;stroke-miterlimit:4;stroke-dasharray:none;stroke-opacity:1"
       id="path4525-3"
       sodipodi:type="arc"
       sodipodi:cx="168.49593"
       sodipodi:cy="-122.50508"
       sodipodi:rx="19.603859"
       sodipodi:ry="27.579794"
       sodipodi:start="3.1082717"
       sodipodi:end="0.041838438"
       d="m 148.90295,-121.58627 a 19.603859,27.579794 0 0 1 9.65102,-24.68879 19.603859,27.579794 0 0 1 20.02746,0.12 19.603859,27.579794 0 0 1 9.5012,24.80354"
       sodipodi:open="true"
       transform="scale(1,-1)" />
    <path
       style="fill:none;fill-rule:evenodd;stroke:#fcca01;stroke-width:3;stroke-linecap:butt;stroke-linejoin:miter;stroke-opacity:1;stroke-miterlimit:4;stroke-dasharray:none"
       d="m 168.95536,150.9122 0.18898,15.11905 -0.18898,-0.94494 0.56696,0.94494"
       id="path4587"
       inkscape:connector-curvature="0" />
    <path
       style="fill:none;fill-rule:evenodd;stroke:#fcca01;stroke-width:3;stroke-linecap:butt;stroke-linejoin:miter;stroke-miterlimit:4;stroke-dasharray:none;stroke-opacity:1"
       d="m 154.40327,166.97618 h 29.67113 -0.18898"
       id="path4589"
       inkscape:connector-curvature="0" />
  </g>
</svg>
