<?xml version="1.0" encoding="UTF-8" standalone="no"?>
<!-- Created with Inkscape (http://www.inkscape.org/) -->

<svg
   xmlns:dc="http://purl.org/dc/elements/1.1/"
   xmlns:cc="http://creativecommons.org/ns#"
   xmlns:rdf="http://www.w3.org/1999/02/22-rdf-syntax-ns#"
   xmlns:svg="http://www.w3.org/2000/svg"
   xmlns="http://www.w3.org/2000/svg"
   xmlns:sodipodi="http://sodipodi.sourceforge.net/DTD/sodipodi-0.dtd"
   xmlns:inkscape="http://www.inkscape.org/namespaces/inkscape"
   width="14.212429mm"
   height="9.5185089mm"
   viewBox="0 0 50.359001 33.727"
   id="svg4844"
   version="1.1"
   inkscape:version="0.91 r13725"
   sodipodi:docname="Speaking into microphone.svg">
  <defs
     id="defs4846" />
  <sodipodi:namedview
     id="base"
     pagecolor="#ffffff"
     bordercolor="#666666"
     borderopacity="1.0"
     inkscape:pageopacity="0.0"
     inkscape:pageshadow="2"
     inkscape:zoom="0.35"
     inkscape:cx="-541.24907"
     inkscape:cy="-308.85078"
     inkscape:document-units="px"
     inkscape:current-layer="layer1"
     showgrid="false"
     fit-margin-top="0"
     fit-margin-left="0"
     fit-margin-right="0"
     fit-margin-bottom="0"
     inkscape:window-width="1840"
     inkscape:window-height="1177"
     inkscape:window-x="1912"
     inkscape:window-y="-8"
     inkscape:window-maximized="1" />
  <metadata
     id="metadata4849">
    <rdf:RDF>
      <cc:Work
         rdf:about="">
        <dc:format>image/svg+xml</dc:format>
        <dc:type
           rdf:resource="http://purl.org/dc/dcmitype/StillImage" />
        <dc:title></dc:title>
      </cc:Work>
    </rdf:RDF>
  </metadata>
  <g
     inkscape:label="Layer 1"
     inkscape:groupmode="layer"
     id="layer1"
     transform="translate(-257.67764,-189.78442)">
    <g
       style="fill:#9b8322;fill-opacity:1"
       transform="translate(188.54448,81.94984)"
       id="g12085">
      <path
         inkscape:connector-curvature="0"
         d="m 119.49216,130.48158 0,-2.764 c 0,-0.42 -0.34,-0.762 -0.759,-0.762 -0.421,0 -0.761,0.342 -0.761,0.762 l 0,2.764 c 0,2.689 -2.19,4.877 -4.88,4.877 -2.69,0 -4.876,-2.188 -4.876,-4.877 l 0,-2.764 c 0,-0.42 -0.34,-0.762 -0.761,-0.762 -0.421,0 -0.762,0.342 -0.762,0.762 l 0,2.764 c 0,3.255 2.444,5.947 5.594,6.348 l 0,3.21 -3.887,0 0,1.522 9.512,0 0,-1.522 -4.105,0 0,-3.199 c 3.195,-0.358 5.685,-3.073 5.685,-6.359 z"
         id="path12087"
         style="fill:#fcca01;fill-opacity:1" />
      <path
         inkscape:connector-curvature="0"
         d="m 69.13316,141.56158 c 0,0 2.399,-7.72 8.332,-13.793 1.668,-1.805 6.146,-3.524 9.235,-0.923 5.334,4.488 5.334,14.716 5.334,14.716 l -22.901,0 z"
         id="path12089"
         style="fill:#fcca01;fill-opacity:1" />
      <g
         id="g12091"
         style="fill:#9b8322;fill-opacity:1"
         transform="matrix(-1,0,0,1,119.49216,99.712579)">
        <path
           inkscape:connector-curvature="0"
           d="m 31.29,10.881 0.726,3.699 c 1.342,0.319 2.343,1.517 2.343,2.957 0,1.682 -1.364,3.043 -3.045,3.043 -1.682,0 -3.046,-1.361 -3.046,-3.043 0,-1.032 0.518,-1.938 1.3,-2.49 l -0.789,-4.024 c -3.196,0.75 -5.585,3.617 -5.585,7.049 0,3.992 3.248,7.235 7.237,7.235 4.006,0 7.245,-3.243 7.245,-7.235 0,-3.715 -2.786,-6.769 -6.386,-7.191 z"
           id="path12093"
           style="fill:#fcca01;fill-opacity:1" />
        <path
           inkscape:connector-curvature="0"
           d="m 30.431,10.824 c 0.291,0 0.576,0.023 0.859,0.057 L 30.755,8.122 28.31,8.6 l 0.469,2.421 c 0.531,-0.123 1.081,-0.197 1.652,-0.197 z"
           id="path12095"
           style="fill:#fcca01;fill-opacity:1" />
      </g>
      <g
         id="g12097"
         style="fill:#9b8322;fill-opacity:1"
         transform="matrix(-1,0,0,1,119.49216,99.712579)">
        <path
           inkscape:connector-curvature="0"
           d="m 19.349,36.786 c -4.801,0 -5.078,5.024 -5.078,5.024 l 10.162,0.022 c -0.022,-2.79 -2.288,-5.046 -5.084,-5.046 z"
           id="path12099"
           style="fill:#fcca01;fill-opacity:1" />
        <polygon
           points="24.433,41.836 24.433,41.833 24.433,41.833 "
           id="polygon12101"
           style="fill:#fcca01;fill-opacity:1" />
      </g>
      <g
         id="g12103"
         style="fill:#9b8322;fill-opacity:1"
         transform="matrix(-1,0,0,1,119.49216,99.712579)">
        <path
           inkscape:connector-curvature="0"
           d="m 10.06,24.88 c 0.004,-2.28 0.007,-4.415 0.007,-4.415 l -0.016,0 c -0.03,-1.981 -1.644,-3.581 -3.634,-3.581 -2.006,0 -3.634,1.629 -3.634,3.636 0,0.064 0,2.138 0,4.36 l 7.277,0 z"
           id="path12105"
           style="fill:#fcca01;fill-opacity:1" />
        <path
           inkscape:connector-curvature="0"
           d="m 2.783,26.208 c 0,2.121 0,4.038 0,4.101 0,2.008 1.627,3.635 3.634,3.635 2.008,0 3.635,-1.627 3.635,-3.635 0,-0.007 0.002,-1.946 0.006,-4.101 l -7.275,0 z"
           id="path12107"
           style="fill:#fcca01;fill-opacity:1" />
      </g>
    </g>
  </g>
</svg>
