<?xml version="1.0" encoding="UTF-8" standalone="no"?>
<!-- Created with Inkscape (http://www.inkscape.org/) -->

<svg
   xmlns:dc="http://purl.org/dc/elements/1.1/"
   xmlns:cc="http://creativecommons.org/ns#"
   xmlns:rdf="http://www.w3.org/1999/02/22-rdf-syntax-ns#"
   xmlns:svg="http://www.w3.org/2000/svg"
   xmlns="http://www.w3.org/2000/svg"
   xmlns:sodipodi="http://sodipodi.sourceforge.net/DTD/sodipodi-0.dtd"
   xmlns:inkscape="http://www.inkscape.org/namespaces/inkscape"
   width="210mm"
   height="297mm"
   viewBox="0 0 210 297"
   version="1.1"
   id="svg95"
   inkscape:version="0.92.3 (2405546, 2018-03-11)"
   sodipodi:docname="stethoscope.svg">
  <defs
     id="defs89" />
  <sodipodi:namedview
     id="base"
     pagecolor="#ffffff"
     bordercolor="#666666"
     borderopacity="1.0"
     inkscape:pageopacity="0.0"
     inkscape:pageshadow="2"
     inkscape:zoom="0.35"
     inkscape:cx="400"
     inkscape:cy="560"
     inkscape:document-units="mm"
     inkscape:current-layer="layer1"
     showgrid="false"
     inkscape:pagecheckerboard="false"
     showborder="false"
     inkscape:window-width="1680"
     inkscape:window-height="987"
     inkscape:window-x="-8"
     inkscape:window-y="29"
     inkscape:window-maximized="1" />
  <metadata
     id="metadata92">
    <rdf:RDF>
      <cc:Work
         rdf:about="">
        <dc:format>image/svg+xml</dc:format>
        <dc:type
           rdf:resource="http://purl.org/dc/dcmitype/StillImage" />
        <dc:title></dc:title>
      </cc:Work>
    </rdf:RDF>
  </metadata>
  <g
     inkscape:label="Layer 1"
     inkscape:groupmode="layer"
     id="layer1">
    <g
       id="g137"
       style="fill:#999999"
       transform="translate(-4.5357167,-5.2916669)"
       inkscape:export-xdpi="2.3099999"
       inkscape:export-ydpi="2.3099999">
      <path
         style="fill:#999999;fill-opacity:1;stroke-width:0.26458332"
         d="m 110.57252,185.25697 c 0.25743,-0.0671 0.61462,-0.0627 0.79375,0.01 0.17913,0.0725 -0.0315,0.12736 -0.46805,0.12197 -0.43657,-0.005 -0.58313,-0.0647 -0.3257,-0.13177 z m 3.16997,0.001 c 0.25466,-0.0665 0.67138,-0.0665 0.92604,0 0.25466,0.0666 0.0463,0.121 -0.46302,0.121 -0.50933,0 -0.71769,-0.0545 -0.46302,-0.121 z m 3.83645,-0.25743 c 0.18191,-0.0734 0.47956,-0.0734 0.66146,0 0.1819,0.0734 0.0331,0.13346 -0.33073,0.13346 -0.3638,0 -0.51263,-0.0601 -0.33073,-0.13346 z m -13.21263,-0.27009 c 0.191,-0.0764 0.41921,-0.067 0.50712,0.0209 0.0879,0.0879 -0.0683,0.15045 -0.34726,0.13896 -0.30823,-0.0127 -0.37092,-0.0754 -0.15986,-0.15985 z m -17.711219,-7.42612 c -0.329108,-0.41965 -0.319749,-0.429 0.0999,-0.0999 0.254661,0.19972 0.46302,0.40808 0.46302,0.46302 0,0.21777 -0.217273,0.0776 -0.562916,-0.36312 z m -1.852084,-1.5875 c -0.329107,-0.41965 -0.319749,-0.429 0.0999,-0.0999 0.254662,0.19972 0.463021,0.40808 0.463021,0.46302 0,0.21777 -0.217273,0.0776 -0.562917,-0.36312 z m -1.322916,-1.32292 c -0.329108,-0.41964 -0.319749,-0.429 0.0999,-0.0999 0.254661,0.19972 0.46302,0.40808 0.46302,0.46302 0,0.21776 -0.217273,0.0776 -0.562916,-0.36313 z m 31.717599,-1.82887 c 0.18191,-0.0734 0.47956,-0.0734 0.66146,0 0.1819,0.0734 0.0331,0.13345 -0.33073,0.13345 -0.3638,0 -0.51263,-0.0601 -0.33073,-0.13345 z m -33.834266,-0.55238 c -0.329107,-0.41964 -0.319749,-0.429 0.0999,-0.0999 0.254661,0.19972 0.463021,0.40808 0.463021,0.46302 0,0.21776 -0.217273,0.0776 -0.562917,-0.36313 z m 37.819556,0.28228 c 0.191,-0.0764 0.4192,-0.067 0.50712,0.0209 0.0879,0.0879 -0.0683,0.15045 -0.34727,0.13896 -0.30822,-0.0127 -0.37092,-0.0754 -0.15985,-0.15985 z m 27.30169,0.0809 c 0,-0.0549 0.20836,-0.2633 0.46302,-0.46302 0.41965,-0.32911 0.42901,-0.31975 0.0999,0.0999 -0.34564,0.44073 -0.56292,0.58089 -0.56292,0.36313 z m 3.175,-3.2074 c 0.34178,-0.3638 0.68094,-0.66146 0.7537,-0.66146 0.0728,0 -0.14734,0.29766 -0.48911,0.66146 -0.34178,0.3638 -0.68094,0.66146 -0.7537,0.66146 -0.0728,0 0.14734,-0.29766 0.48911,-0.66146 z m -11.37708,-4.46552 c 0,-0.0549 0.20836,-0.2633 0.46302,-0.46302 0.41965,-0.32911 0.429,-0.31975 0.0999,0.0999 -0.34565,0.44073 -0.56292,0.58088 -0.56292,0.36312 z m -45.012916,-1.68604 c -0.329107,-0.41965 -0.319749,-0.429 0.0999,-0.0999 0.254661,0.19972 0.463021,0.40808 0.463021,0.46302 0,0.21777 -0.217274,0.0776 -0.562917,-0.36312 z m 60.115056,-30.64757 c 0.0127,-0.30823 0.0754,-0.37092 0.15985,-0.15985 0.0764,0.19099 0.067,0.4192 -0.0209,0.50712 -0.0879,0.0879 -0.15045,-0.0684 -0.13896,-0.34727 z m 12.4563,-1.16858 c 0,-0.3638 0.0601,-0.51263 0.13345,-0.33073 0.0734,0.18191 0.0734,0.47956 0,0.66146 -0.0734,0.1819 -0.13345,0.0331 -0.13345,-0.33073 z M 59.387148,127.05125 c 0.190995,-0.0764 0.419201,-0.067 0.507119,0.0209 0.08792,0.0879 -0.06835,0.15045 -0.347265,0.13896 -0.308227,-0.0127 -0.37092,-0.0754 -0.159854,-0.15985 z m -5.027083,-0.26458 c 0.190995,-0.0764 0.419201,-0.067 0.507119,0.0209 0.08792,0.0879 -0.06835,0.15045 -0.347265,0.13896 -0.308227,-0.0127 -0.37092,-0.0754 -0.159854,-0.15985 z m 89.445025,-4.25103 c -0.32911,-0.41965 -0.31975,-0.429 0.0999,-0.0999 0.25466,0.19972 0.46302,0.40808 0.46302,0.46302 0,0.21777 -0.21728,0.0776 -0.56292,-0.36312 z m -109.802082,-4.7625 c -0.329107,-0.41965 -0.319749,-0.429 0.0999,-0.0999 0.254662,0.19972 0.463021,0.40808 0.463021,0.46302 0,0.21777 -0.217273,0.0776 -0.562917,-0.36312 z m -1.182013,-1.19063 -0.504028,-0.59531 0.595312,0.50403 c 0.559446,0.47366 0.715762,0.6866 0.504029,0.6866 -0.05021,0 -0.318098,-0.26789 -0.595313,-0.59532 z M 139.4166,110.69554 c 0.002,-0.72761 0.0534,-0.99386 0.11418,-0.59168 0.0608,0.40218 0.0592,0.9975 -0.004,1.32292 -0.0628,0.32542 -0.11255,-0.004 -0.11057,-0.73124 z m 43.11279,-0.39688 c 0,-0.50932 0.0545,-0.71768 0.121,-0.46302 0.0666,0.25466 0.0666,0.67138 0,0.92604 -0.0665,0.25466 -0.121,0.0463 -0.121,-0.46302 z M 60.693529,110.6526 c 0.181901,-0.0734 0.479557,-0.0734 0.661458,0 0.181901,0.0734 0.03307,0.13345 -0.330729,0.13345 -0.363802,0 -0.51263,-0.0601 -0.330729,-0.13345 z m 5.027083,0 c 0.181901,-0.0734 0.479557,-0.0734 0.661458,0 0.181901,0.0734 0.03307,0.13345 -0.330729,0.13345 -0.363802,0 -0.51263,-0.0601 -0.330729,-0.13345 z m 73.662088,-1.94144 c 0,-0.3638 0.06,-0.51263 0.13345,-0.33073 0.0734,0.1819 0.0734,0.47956 0,0.66146 -0.0734,0.1819 -0.13345,0.0331 -0.13345,-0.33073 z m -99.294275,-7.87135 c -0.329108,-0.41965 -0.319749,-0.42901 0.0999,-0.0999 0.254661,0.19972 0.46302,0.40808 0.46302,0.46302 0,0.21776 -0.217273,0.0776 -0.562916,-0.36312 z M 143.57426,97.763348 c 0,-0.05494 0.20836,-0.2633 0.46302,-0.463021 0.41964,-0.329107 0.429,-0.319749 0.0999,0.0999 -0.34564,0.44073 -0.56291,0.580888 -0.56291,0.363125 z M 107.8764,56.963072 c 0.0127,-0.308226 0.0754,-0.370919 0.15985,-0.159853 0.0764,0.190994 0.067,0.4192 -0.0209,0.507118 -0.0879,0.08792 -0.15045,-0.06835 -0.13896,-0.347265 z M 121.68056,46.66637 c 0.003,-0.582084 0.0571,-0.789054 0.12041,-0.459936 0.0633,0.329118 0.0609,0.805368 -0.005,1.058333 -0.0662,0.252966 -0.118,-0.01633 -0.11506,-0.598397 z M 18.711814,44.792239 c 0.0127,-0.308227 0.07539,-0.37092 0.159851,-0.159854 0.07643,0.190995 0.06703,0.419198 -0.02088,0.507119 -0.08792,0.08792 -0.150453,-0.06835 -0.138964,-0.347265 z m 91.810416,-2.116667 c 0.0127,-0.308226 0.0754,-0.370919 0.15985,-0.159853 0.0764,0.190995 0.067,0.419198 -0.0209,0.507119 -0.0879,0.08792 -0.15045,-0.06835 -0.13896,-0.347266 z m 11.46059,-3.152952 c 5.3e-4,-2.037292 0.0419,-2.835754 0.0923,-1.774362 0.0504,1.061392 0.05,2.728267 -7.9e-4,3.704167 -0.0507,0.975899 -0.0919,0.107486 -0.0915,-1.929805 z M 21.46905,34.892412 c 0.26339,-0.291042 0.538422,-0.529167 0.611182,-0.529167 0.07276,0 -0.08321,0.238125 -0.346599,0.529167 -0.26339,0.291041 -0.538421,0.529166 -0.611182,0.529166 -0.07276,0 0.08321,-0.238125 0.346599,-0.529166 z m 11.740208,-4.167188 c -0.329107,-0.419645 -0.319749,-0.429003 0.0999,-0.0999 0.254662,0.199721 0.463021,0.40808 0.463021,0.463021 0,0.217763 -0.217273,0.0776 -0.562917,-0.363125 z m 17.231667,-0.41352 c 0,-0.04553 0.386953,-0.432488 0.859895,-0.859896 l 0.859896,-0.777105 -0.777105,0.859896 c -0.724371,0.801545 -0.942686,0.981512 -0.942686,0.777105 z m 66.112085,-5.93648 c -0.32911,-0.419645 -0.31975,-0.429003 0.0999,-0.0999 0.25466,0.199721 0.46302,0.40808 0.46302,0.463021 0,0.217763 -0.21727,0.07761 -0.56291,-0.363125 z M 54.461255,21.001787 c 0.0054,-0.436563 0.06469,-0.583126 0.131773,-0.325694 0.06708,0.257431 0.06267,0.614619 -0.0098,0.79375 -0.07248,0.179131 -0.127362,-0.03149 -0.12197,-0.468056 z m 41.68644,-1.89502 c 0.181901,-0.0734 0.479557,-0.0734 0.661458,0 0.181901,0.0734 0.03307,0.133453 -0.330729,0.133453 -0.363802,0 -0.51263,-0.06006 -0.330729,-0.133453 z M 51.465508,13.527308 c -0.329108,-0.419645 -0.319749,-0.429004 0.0999,-0.0999 0.440729,0.345643 0.580887,0.562917 0.363125,0.562917 -0.05494,0 -0.263301,-0.20836 -0.463021,-0.463021 z m 40.745832,0 c -0.329107,-0.419645 -0.319749,-0.429004 0.0999,-0.0999 0.440729,0.345643 0.580887,0.562917 0.363124,0.562917 -0.05494,0 -0.2633,-0.20836 -0.463021,-0.463021 z m -60.820415,0.115646 c 0,-0.04553 0.386953,-0.432487 0.859896,-0.859895 l 0.859896,-0.777105 -0.777105,0.859895 c -0.724371,0.801545 -0.942687,0.981512 -0.942687,0.777105 z m 18.89257,-1.306271 -0.504029,-0.595313 0.595313,0.504028 c 0.559445,0.473663 0.715761,0.686597 0.504028,0.686597 -0.05021,0 -0.318098,-0.26789 -0.595312,-0.595312 z M 41.924649,9.0470881 c 0.190995,-0.076431 0.419198,-0.067031 0.507119,0.020889 0.08792,0.087919 -0.06835,0.150453 -0.347266,0.1389645 -0.308226,-0.012695 -0.370919,-0.075391 -0.159853,-0.1598525 z"
         id="path151"
         inkscape:connector-curvature="0" />
      <path
         style="fill:#999999;fill-opacity:1;stroke-width:0.26458332"
         d="m 112.02578,185.2532 c 0.32912,-0.0633 0.80537,-0.0609 1.05833,0.005 0.25297,0.0662 -0.0163,0.11801 -0.59839,0.11507 -0.58209,-0.003 -0.78906,-0.0571 -0.45994,-0.12041 z m 0.13424,-12.69623 c 0.25743,-0.0671 0.61462,-0.0627 0.79375,0.01 0.17913,0.0725 -0.0315,0.12736 -0.46805,0.12197 -0.43657,-0.005 -0.58313,-0.0647 -0.3257,-0.13177 z m 4.36368,-0.004 c 0.32911,-0.0633 0.80536,-0.0609 1.05833,0.005 0.25297,0.0662 -0.0163,0.11801 -0.5984,0.11507 -0.58208,-0.003 -0.78905,-0.0571 -0.45993,-0.12041 z m 31.28389,-1.50026 c 0,-0.0549 0.20836,-0.2633 0.46302,-0.46302 0.41965,-0.32911 0.429,-0.31975 0.0999,0.0999 -0.34565,0.44073 -0.56292,0.58088 -0.56292,0.36312 z m 3.43958,-3.70417 c 0,-0.0549 0.20836,-0.2633 0.46302,-0.46302 0.41965,-0.3291 0.42901,-0.31975 0.0999,0.0999 -0.34564,0.44073 -0.56292,0.58089 -0.56292,0.36312 z m 25.26771,-43.29177 c 0.71666,-0.7276 1.36256,-1.32291 1.43532,-1.32291 0.0728,0 -0.45407,0.59531 -1.17074,1.32291 -0.71666,0.72761 -1.36255,1.32292 -1.43531,1.32292 -0.0728,0 0.45407,-0.59531 1.17073,-1.32292 z M 139.6264,113.31932 c 0.0127,-0.30823 0.0754,-0.37092 0.15985,-0.15985 0.0764,0.19099 0.067,0.4192 -0.0209,0.50712 -0.0879,0.0879 -0.15045,-0.0684 -0.13896,-0.34727 z m 42.59791,-0.52917 c 0.0127,-0.30822 0.0754,-0.37092 0.15985,-0.15985 0.0764,0.191 0.067,0.4192 -0.0209,0.50712 -0.0879,0.0879 -0.15046,-0.0684 -0.13897,-0.34727 z M 163.63298,89.745005 c 0.191,-0.07643 0.4192,-0.06703 0.50712,0.02087 0.0879,0.08792 -0.0683,0.150453 -0.34727,0.138965 -0.30822,-0.0127 -0.37092,-0.07539 -0.15985,-0.159851 z M 121.12645,51.561161 c 0,-0.363802 0.06,-0.51263 0.13345,-0.330729 0.0734,0.181901 0.0734,0.479557 0,0.661459 -0.0734,0.181901 -0.13345,0.03307 -0.13345,-0.33073 z m 0.26458,-2.38125 c 0,-0.363802 0.0601,-0.51263 0.13346,-0.330729 0.0734,0.181901 0.0734,0.479558 0,0.661459 -0.0734,0.181901 -0.13346,0.03307 -0.13346,-0.33073 z m 0.2437,-3.858506 c 0.0127,-0.308226 0.0754,-0.370919 0.15985,-0.159853 0.0764,0.190995 0.067,0.419198 -0.0209,0.507119 -0.0879,0.08792 -0.15045,-0.06835 -0.13896,-0.347266 z M 18.468117,43.359078 c 0,-0.363802 0.06006,-0.51263 0.133453,-0.330729 0.0734,0.181901 0.0734,0.479557 0,0.661458 -0.0734,0.181901 -0.133453,0.03307 -0.133453,-0.330729 z M 6.5814761,42.300745 c 0,-0.509323 0.05445,-0.717682 0.1210001,-0.463021 0.06655,0.254661 0.06655,0.67138 0,0.926042 -0.06655,0.254661 -0.1210001,0.0463 -0.1210001,-0.463021 z m 11.8657549,-1.74184 c 0.0127,-0.308226 0.07539,-0.370919 0.15985,-0.159853 0.07643,0.190995 0.06703,0.419198 -0.02088,0.507119 -0.08792,0.08792 -0.150453,-0.06835 -0.138965,-0.347266 z m 63.677547,-7.164638 c 0.181901,-0.0734 0.479558,-0.0734 0.661459,0 0.181901,0.0734 0.03307,0.133453 -0.330729,0.133453 -0.363803,0 -0.512631,-0.06006 -0.33073,-0.133453 z M 13.266967,28.806995 c 0.26339,-0.291042 0.538422,-0.529167 0.611182,-0.529167 0.07276,0 -0.08321,0.238125 -0.346599,0.529167 -0.26339,0.291042 -0.538422,0.529167 -0.611182,0.529167 -0.07276,0 0.08321,-0.238125 0.346599,-0.529167 z m 78.448957,0.429271 c 0,-0.05494 0.208359,-0.2633 0.463021,-0.463021 0.419645,-0.329107 0.429003,-0.319749 0.0999,0.0999 -0.345644,0.44073 -0.562917,0.580887 -0.562917,0.363125 z m 7.358724,-9.870427 c 0.190995,-0.07643 0.4192,-0.06703 0.507119,0.02088 0.08792,0.08792 -0.06835,0.150452 -0.347266,0.138964 -0.308226,-0.0127 -0.370919,-0.07539 -0.159853,-0.159851 z m -8.04532,-7.029156 -0.504029,-0.595313 0.595313,0.504028 c 0.559445,0.473663 0.715761,0.686597 0.504028,0.686597 -0.05021,0 -0.318098,-0.26789 -0.595312,-0.595312 z"
         id="path149"
         inkscape:connector-curvature="0" />
      <path
         style="fill:#999999;fill-opacity:1;stroke-width:0.26458332"
         d="m 107.92165,184.99336 c 0.25466,-0.0666 0.67138,-0.0666 0.92604,0 0.25467,0.0666 0.0463,0.121 -0.46302,0.121 -0.50932,0 -0.71768,-0.0545 -0.46302,-0.121 z m 8.35091,0.002 c 0.191,-0.0764 0.4192,-0.067 0.50712,0.0209 0.0879,0.0879 -0.0683,0.15045 -0.34726,0.13897 -0.30823,-0.0127 -0.37092,-0.0754 -0.15986,-0.15986 z m -10.84791,-0.26458 c 0.19099,-0.0764 0.4192,-0.067 0.50712,0.0209 0.0879,0.0879 -0.0684,0.15045 -0.34727,0.13896 -0.30823,-0.0127 -0.37092,-0.0754 -0.15985,-0.15985 z m 13.49375,0 c 0.19099,-0.0764 0.4192,-0.067 0.50712,0.0209 0.0879,0.0879 -0.0684,0.15045 -0.34727,0.13896 -0.30823,-0.0127 -0.37092,-0.0754 -0.15985,-0.15985 z m 1.32291,-12.43541 c 0.191,-0.0764 0.4192,-0.067 0.50712,0.0209 0.0879,0.0879 -0.0683,0.15045 -0.34726,0.13897 -0.30823,-0.0127 -0.37092,-0.0754 -0.15986,-0.15986 z m -25.495126,-7.55827 -1.045885,-1.12448 1.124479,1.04589 c 1.045755,0.97266 1.246063,1.20307 1.045885,1.20307 -0.04323,0 -0.549243,-0.50602 -1.124479,-1.12448 z m 59.031536,-35.31046 c -0.14358,-0.37709 -0.11319,-0.40748 0.14812,-0.14812 0.18082,0.17948 0.26211,0.39297 0.18065,0.47444 -0.0815,0.0815 -0.22941,-0.0654 -0.32877,-0.32632 z M 55.666445,126.7926 c 0.181901,-0.0734 0.479558,-0.0734 0.661459,0 0.181901,0.0734 0.03307,0.13346 -0.330729,0.13346 -0.363802,0 -0.512631,-0.0601 -0.33073,-0.13346 z m 6.879167,0 c 0.181901,-0.0734 0.479557,-0.0734 0.661458,0 0.181901,0.0734 0.03307,0.13346 -0.330729,0.13346 -0.363802,0 -0.51263,-0.0601 -0.330729,-0.13346 z m 82.601898,-2.93362 -0.9118,-0.99219 0.99219,0.9118 c 0.92351,0.84868 1.11384,1.07257 0.9118,1.07257 -0.0442,0 -0.4907,-0.44648 -0.99219,-0.99218 z m -45.361794,-9.85573 c 0.568384,-0.58209 1.092964,-1.05834 1.165724,-1.05834 0.0728,0 -0.33275,0.47625 -0.90114,1.05834 -0.56839,0.58208 -1.092968,1.05833 -1.165729,1.05833 -0.07276,0 0.332756,-0.47625 0.901145,-1.05833 z m -40.133984,-3.35574 c 0.190995,-0.0764 0.4192,-0.067 0.507119,0.0209 0.08792,0.0879 -0.06835,0.15046 -0.347266,0.13897 -0.308226,-0.0127 -0.370919,-0.0754 -0.159853,-0.15985 z m 7.408333,0 c 0.190995,-0.0764 0.419201,-0.067 0.507119,0.0209 0.08792,0.0879 -0.06835,0.15046 -0.347266,0.13897 -0.308226,-0.0127 -0.370919,-0.0754 -0.159853,-0.15985 z M 90.525299,102.097 c 0.26339,-0.29104 0.538422,-0.52917 0.611182,-0.52917 0.07276,0 -0.08321,0.23813 -0.346599,0.52917 -0.26339,0.29104 -0.538421,0.52916 -0.611182,0.52916 -0.07276,0 0.08321,-0.23812 0.346599,-0.52916 z m 54.901041,-6.217711 c 0.49365,-0.509323 0.95709,-0.926042 1.02985,-0.926042 0.0728,0 -0.27161,0.416719 -0.76527,0.926042 -0.49365,0.509323 -0.95708,0.926042 -1.02984,0.926042 -0.0728,0 0.27161,-0.416719 0.76526,-0.926042 z m 30.93622,-0.06615 -0.64143,-0.727604 0.72761,0.641432 c 0.40018,0.35279 0.7276,0.680212 0.7276,0.727604 0,0.207508 -0.21426,0.03862 -0.81378,-0.641432 z M 6.8264517,43.888245 c 0,-0.363802 0.060053,-0.51263 0.1334521,-0.330729 0.073399,0.181901 0.073399,0.479557 0,0.661458 -0.073399,0.181901 -0.1334521,0.03307 -0.1334521,-0.330729 z m 0.0098,-3.307292 c 0.00539,-0.436562 0.06469,-0.583126 0.1317736,-0.325694 0.067083,0.257432 0.062672,0.614619 -0.0098,0.79375 -0.072475,0.179131 -0.1273619,-0.03149 -0.1219697,-0.468056 z M 22.130508,34.263349 c 0,-0.05494 0.20836,-0.2633 0.463021,-0.463021 0.419645,-0.329107 0.429004,-0.319749 0.0999,0.0999 -0.345643,0.44073 -0.562917,0.580888 -0.562917,0.363125 z m 86.898982,-1.289167 -0.77711,-0.859895 0.8599,0.777105 c 0.80154,0.724371 0.98151,0.942686 0.7771,0.942686 -0.0455,0 -0.43248,-0.386953 -0.85989,-0.859896 z M 32.291829,29.799183 31.7878,29.20387 l 0.595312,0.504029 c 0.559446,0.473662 0.715762,0.686596 0.504029,0.686596 -0.05021,0 -0.318098,-0.267891 -0.595312,-0.595312 z m 39.952082,-0.79375 -0.504028,-0.595313 0.595312,0.504029 c 0.327422,0.277214 0.595313,0.545105 0.595313,0.595312 0,0.211733 -0.212934,0.05542 -0.686597,-0.504028 z m 45.785609,-3.175 -1.04589,-1.12448 1.12448,1.045885 c 1.04576,0.972661 1.24606,1.203074 1.04589,1.203074 -0.0432,0 -0.54925,-0.506016 -1.12448,-1.124479 z m -48.751598,-4.29948 c 0.0054,-0.436562 0.06469,-0.583125 0.131773,-0.325694 0.06708,0.257432 0.06267,0.614619 -0.0098,0.79375 -0.07248,0.179131 -0.127363,-0.03149 -0.121971,-0.468056 z m 32.563348,-1.903145 c 0.25743,-0.06708 0.61462,-0.06267 0.79375,0.0098 0.17913,0.07248 -0.0315,0.127362 -0.46805,0.12197 -0.43657,-0.0054 -0.58313,-0.06469 -0.3257,-0.131773 z"
         id="path147"
         inkscape:connector-curvature="0" />
      <path
         style="fill:#999999;fill-opacity:1;stroke-width:0.26458332"
         d="m 103.55603,184.47135 c 0.1819,-0.0734 0.47956,-0.0734 0.66146,0 0.1819,0.0734 0.0331,0.13345 -0.33073,0.13345 -0.3638,0 -0.51263,-0.0601 -0.33073,-0.13345 z m 16.94987,-0.006 c 0.19099,-0.0764 0.4192,-0.067 0.50712,0.0209 0.0879,0.0879 -0.0684,0.15045 -0.34727,0.13896 -0.30823,-0.0127 -0.37092,-0.0754 -0.15985,-0.15985 z m -35.297406,-8.61666 -0.504028,-0.59531 0.595312,0.50403 c 0.327422,0.27721 0.595313,0.5451 0.595313,0.59531 0,0.21173 -0.212934,0.0554 -0.686597,-0.50403 z m -2.38125,-2.38125 -0.504028,-0.59531 0.595312,0.50403 c 0.559446,0.47366 0.715762,0.68659 0.504029,0.68659 -0.05021,0 -0.318098,-0.26789 -0.595313,-0.59531 z m 18.547846,-3.63499 c -0.0927,-0.14998 0.0135,-0.19434 0.24897,-0.10398 0.45837,0.17589 0.54223,0.36553 0.16165,0.36553 -0.13694,0 -0.32172,-0.1177 -0.41062,-0.26155 z m 48.81375,-1.42584 c 0,-0.0549 0.20836,-0.2633 0.46302,-0.46302 0.41965,-0.32911 0.429,-0.31975 0.0999,0.0999 -0.34565,0.44073 -0.56292,0.58089 -0.56292,0.36313 z m -10.58333,-4.7949 c 0.34177,-0.3638 0.68094,-0.66146 0.7537,-0.66146 0.0728,0 -0.14734,0.29766 -0.48912,0.66146 -0.34178,0.3638 -0.68094,0.66146 -0.7537,0.66146 -0.0728,0 0.14734,-0.29766 0.48912,-0.66146 z m 1.5875,-1.5875 c 0.34177,-0.3638 0.68094,-0.66146 0.7537,-0.66146 0.0728,0 -0.14734,0.29766 -0.48912,0.66146 -0.34178,0.3638 -0.68094,0.66146 -0.7537,0.66146 -0.0728,0 0.14734,-0.29766 0.48912,-0.66146 z M 80.095146,127.07765 c 0.0127,-0.30822 0.07539,-0.37092 0.159851,-0.15985 0.07643,0.191 0.06703,0.4192 -0.02088,0.50712 -0.08792,0.0879 -0.150452,-0.0683 -0.138964,-0.34727 z m -22.824664,-0.29098 c 0.190995,-0.0764 0.4192,-0.067 0.507119,0.0209 0.08792,0.0879 -0.06835,0.15045 -0.347266,0.13896 -0.308226,-0.0127 -0.370919,-0.0754 -0.159853,-0.15985 z m -5.291667,-0.52917 c 0.190995,-0.0764 0.419201,-0.067 0.507119,0.0209 0.08792,0.0879 -0.06835,0.15045 -0.347265,0.13896 -0.308227,-0.0127 -0.37092,-0.0754 -0.159854,-0.15985 z m -17.182057,-7.95519 c -0.329107,-0.41965 -0.319749,-0.42901 0.0999,-0.0999 0.254662,0.19972 0.463021,0.40808 0.463021,0.46302 0,0.21776 -0.217273,0.0776 -0.562917,-0.36312 z M 182.255,111.75387 c 0.005,-0.43656 0.0647,-0.58313 0.13178,-0.3257 0.0671,0.25744 0.0627,0.61462 -0.01,0.79375 -0.0725,0.17914 -0.12736,-0.0315 -0.12197,-0.46805 z m -0.0307,-3.72622 c 0.0127,-0.30822 0.0754,-0.37091 0.15985,-0.15985 0.0764,0.191 0.067,0.4192 -0.0209,0.50712 -0.0879,0.0879 -0.15046,-0.0684 -0.13897,-0.34727 z m -42.59791,-0.52916 c 0.0127,-0.30823 0.0754,-0.37092 0.15985,-0.15986 0.0764,0.191 0.067,0.4192 -0.0209,0.50712 -0.0879,0.0879 -0.15045,-0.0683 -0.13896,-0.34726 z M 162.5581,89.750516 c 0.1819,-0.0734 0.47956,-0.0734 0.66146,0 0.1819,0.0734 0.0331,0.133453 -0.33073,0.133453 -0.3638,0 -0.51263,-0.06005 -0.33073,-0.133453 z M 120.5764,54.317239 c 0.0127,-0.308227 0.0754,-0.37092 0.15985,-0.159854 0.0764,0.190995 0.067,0.419201 -0.0209,0.507119 -0.0879,0.08792 -0.15045,-0.06835 -0.13896,-0.347265 z M 7.0701467,45.850572 c 0.012695,-0.308226 0.075391,-0.370919 0.1598525,-0.159853 0.07643,0.190994 0.067031,0.419198 -0.020889,0.507119 -0.087919,0.08792 -0.150453,-0.06835 -0.1389645,-0.347266 z M 121.68056,44.020536 c 0.003,-0.582083 0.0571,-0.789053 0.12041,-0.459935 0.0633,0.329118 0.0609,0.805368 -0.005,1.058333 -0.0662,0.252965 -0.118,-0.01633 -0.11506,-0.598398 z M 18.182647,41.881822 c 0.0127,-0.308226 0.07539,-0.370919 0.159851,-0.159853 0.07643,0.190995 0.06703,0.419198 -0.02088,0.507119 -0.08792,0.08792 -0.150452,-0.06835 -0.138964,-0.347266 z m 92.868753,-1.5875 c 0.0127,-0.308226 0.0754,-0.370919 0.15985,-0.159853 0.0764,0.190995 0.067,0.419198 -0.0209,0.507119 -0.0879,0.08792 -0.15045,-0.06835 -0.13896,-0.347266 z m 0.29527,-2.359202 c 0.005,-0.436563 0.0647,-0.583126 0.13177,-0.325694 0.0671,0.257431 0.0627,0.614619 -0.01,0.79375 -0.0725,0.179131 -0.12736,-0.03149 -0.12197,-0.468056 z m 10.30895,-3.042708 c 0,-0.363802 0.0601,-0.512631 0.13345,-0.33073 0.0734,0.181901 0.0734,0.479558 0,0.661459 -0.0734,0.181901 -0.13345,0.03307 -0.13345,-0.330729 z M 40.188321,33.38711 c 0.254661,-0.06655 0.67138,-0.06655 0.926041,0 0.254662,0.06655 0.0463,0.121002 -0.463021,0.121002 -0.509322,0 -0.717682,-0.05445 -0.46302,-0.121002 z m 2.248958,0.0072 c 0.181901,-0.0734 0.479557,-0.0734 0.661458,0 0.181901,0.0734 0.03307,0.133453 -0.330729,0.133453 -0.363802,0 -0.51263,-0.06005 -0.330729,-0.133453 z m 78.932871,-0.508278 c 0.0127,-0.308226 0.0754,-0.370919 0.15985,-0.159853 0.0764,0.190995 0.067,0.419198 -0.0209,0.507119 -0.0879,0.08792 -0.15045,-0.06835 -0.13896,-0.347266 z m -110.352141,-1.5331 c 0,-0.05494 0.208359,-0.2633 0.46302,-0.463021 0.419645,-0.329107 0.429004,-0.319749 0.0999,0.0999 -0.345644,0.44073 -0.562917,0.580888 -0.562917,0.363125 z m 58.493804,-8.256526 c 0.0127,-0.308227 0.07539,-0.37092 0.159851,-0.159854 0.07643,0.190995 0.06703,0.419198 -0.02088,0.507119 -0.08792,0.08792 -0.150452,-0.06835 -0.138964,-0.347265 z M 97.33832,19.364193 c 0.254661,-0.06655 0.67138,-0.06655 0.926041,0 0.254662,0.06655 0.0463,0.121002 -0.46302,0.121002 -0.509323,0 -0.717683,-0.05445 -0.463021,-0.121002 z"
         id="path145"
         inkscape:connector-curvature="0" />
      <path
         style="fill:#999999;fill-opacity:1;stroke-width:0.26458332"
         d="m 109.90603,185.00051 c 0.1819,-0.0734 0.47956,-0.0734 0.66146,0 0.1819,0.0734 0.0331,0.13346 -0.33073,0.13346 -0.3638,0 -0.51263,-0.0601 -0.33073,-0.13346 z m 4.51445,-0.005 c 0.191,-0.0764 0.4192,-0.067 0.50712,0.0209 0.0879,0.0879 -0.0683,0.15045 -0.34727,0.13896 -0.30822,-0.0127 -0.37092,-0.0754 -0.15985,-0.15985 z m 3.43958,-0.26458 c 0.191,-0.0764 0.4192,-0.067 0.50712,0.0209 0.0879,0.0879 -0.0684,0.15046 -0.34726,0.13897 -0.30823,-0.0127 -0.37092,-0.0754 -0.15986,-0.15985 z m 3.96875,-0.52917 c 0.191,-0.0764 0.4192,-0.067 0.50712,0.0209 0.0879,0.0879 -0.0684,0.15045 -0.34726,0.13896 -0.30823,-0.0127 -0.37092,-0.0754 -0.15986,-0.15985 z m -11.37708,-11.64167 c 0.191,-0.0764 0.4192,-0.067 0.50712,0.0209 0.0879,0.0879 -0.0683,0.15045 -0.34727,0.13896 -0.30822,-0.0127 -0.37092,-0.0754 -0.15985,-0.15985 z m 8.46667,0 c 0.19099,-0.0764 0.4192,-0.067 0.50712,0.0209 0.0879,0.0879 -0.0684,0.15045 -0.34727,0.13896 -0.30823,-0.0127 -0.37092,-0.0754 -0.15985,-0.15985 z m -37.290393,-0.54687 c -0.329107,-0.41964 -0.319749,-0.429 0.0999,-0.0999 0.254662,0.19972 0.463021,0.40808 0.463021,0.46302 0,0.21776 -0.217273,0.0776 -0.562917,-0.36313 z m 64.856663,0.11565 c 0,-0.0455 0.38696,-0.43249 0.8599,-0.8599 l 0.85989,-0.7771 -0.7771,0.85989 c -0.72437,0.80155 -0.94269,0.98152 -0.94269,0.77711 z m 2.91042,-2.95992 c 0.34178,-0.3638 0.68094,-0.66146 0.7537,-0.66146 0.0728,0 -0.14734,0.29766 -0.48912,0.66146 -0.34177,0.3638 -0.68094,0.66146 -0.7537,0.66146 -0.0728,0 0.14734,-0.29766 0.48912,-0.66146 z m -11.1125,-4.20094 c 0,-0.0549 0.20836,-0.2633 0.46302,-0.46302 0.41965,-0.3291 0.429,-0.31975 0.0999,0.0999 -0.34565,0.44073 -0.56292,0.58089 -0.56292,0.36312 z m -61.912499,-0.95843 c -0.15576,-0.29105 -0.223671,-0.52917 -0.15091,-0.52917 0.07276,0 0.259733,0.23812 0.415493,0.52917 0.15576,0.29104 0.223671,0.52916 0.150911,0.52916 -0.07276,0 -0.259734,-0.23812 -0.415494,-0.52916 z m 88.920889,-30.31684 c 0.0127,-0.30823 0.0754,-0.37092 0.15985,-0.15986 0.0764,0.191 0.067,0.4192 -0.0209,0.50712 -0.0879,0.0879 -0.15045,-0.0684 -0.13896,-0.34726 z m 0.29527,-2.3592 c 0.005,-0.43657 0.0647,-0.58313 0.13178,-0.3257 0.0671,0.25743 0.0627,0.61462 -0.01,0.79375 -0.0725,0.17913 -0.12736,-0.0315 -0.12197,-0.46805 z m -106.737812,-4.5597 c 0.622311,-0.0559 1.574811,-0.0551 2.116667,0.002 0.541856,0.0569 0.03269,0.10258 -1.131472,0.10162 -1.164167,-0.001 -1.607505,-0.0475 -0.985195,-0.10337 z m -4.632166,-0.25387 c 0.257432,-0.0671 0.614619,-0.0627 0.79375,0.01 0.179131,0.0725 -0.03149,0.12736 -0.468056,0.12197 -0.436562,-0.005 -0.583126,-0.0647 -0.325694,-0.13177 z m 122.827778,-3.25623 c 0.26339,-0.29104 0.53842,-0.52916 0.61118,-0.52916 0.0728,0 -0.0832,0.23812 -0.3466,0.52916 -0.26339,0.29105 -0.53842,0.52917 -0.61118,0.52917 -0.0728,0 0.0832,-0.23812 0.3466,-0.52917 z M 35.855091,119.09606 c -0.329107,-0.41965 -0.319749,-0.42901 0.0999,-0.0999 0.254662,0.19972 0.463021,0.40808 0.463021,0.46302 0,0.21776 -0.217273,0.0776 -0.562917,-0.36312 z m -2.885704,-2.64584 -1.44617,-1.52135 1.521354,1.44617 c 1.413385,1.34354 1.642557,1.59654 1.44617,1.59654 -0.04135,0 -0.725961,-0.68461 -1.521354,-1.52136 z m 64.831954,-0.69521 c 0,-0.0549 0.208359,-0.2633 0.46302,-0.46302 0.419645,-0.3291 0.429004,-0.31975 0.0999,0.0999 -0.345644,0.44073 -0.562917,0.58089 -0.562917,0.36312 z m 3.174999,-3.175 c 0,-0.0549 0.20836,-0.2633 0.46302,-0.46302 0.41965,-0.3291 0.429,-0.31975 0.0999,0.0999 -0.34565,0.44073 -0.56292,0.58089 -0.56292,0.36312 z m 38.72161,-2.54593 c 0,-1.23693 0.0456,-1.74295 0.10129,-1.12448 0.0557,0.61846 0.0557,1.63049 0,2.24896 -0.0557,0.61846 -0.10129,0.11244 -0.10129,-1.12448 z m -78.47217,0.8712 c 0.329118,-0.0633 0.805368,-0.0609 1.058334,0.005 0.252965,0.0662 -0.01633,0.118 -0.598398,0.11506 -0.582083,-0.003 -0.789053,-0.0571 -0.459936,-0.1204 z m 2.907332,5.3e-4 c 0.327422,-0.0631 0.863203,-0.0631 1.190625,0 0.327422,0.0631 0.05953,0.11466 -0.595313,0.11466 -0.654843,0 -0.922734,-0.0516 -0.595312,-0.11466 z m 118.091198,-1.02595 c 0.0127,-0.30822 0.0754,-0.37092 0.15985,-0.15985 0.0764,0.19099 0.067,0.4192 -0.0209,0.50712 -0.0879,0.0879 -0.15046,-0.0684 -0.13897,-0.34727 z m -141.465815,-8.11401 -0.504029,-0.59531 0.595313,0.50402 c 0.559446,0.47367 0.715761,0.6866 0.504029,0.6866 -0.05021,0 -0.318098,-0.26789 -0.595313,-0.59531 z m -1.199237,-1.19063 c -0.329107,-0.41964 -0.319749,-0.429 0.0999,-0.0999 0.254661,0.19972 0.463021,0.40808 0.463021,0.46302 0,0.21776 -0.217273,0.0776 -0.562917,-0.36313 z M 143.83884,97.763348 c 0,-0.05494 0.20836,-0.2633 0.46302,-0.463021 0.41965,-0.329107 0.429,-0.319749 0.0999,0.0999 -0.34565,0.44073 -0.56292,0.580888 -0.56292,0.363125 z m 33.18007,-1.024583 -0.50403,-0.595313 0.59531,0.504029 c 0.32743,0.277214 0.59532,0.545105 0.59532,0.595312 0,0.211733 -0.21294,0.05542 -0.6866,-0.504028 z m -17.10663,-7.00442 c 0.47294,-0.05869 1.24685,-0.05869 1.71979,0 0.47294,0.05869 0.086,0.106714 -0.8599,0.106714 -0.94588,0 -1.33284,-0.04802 -0.85989,-0.106714 z M 108.67015,54.317239 c 0.0127,-0.308227 0.0754,-0.37092 0.15985,-0.159854 0.0764,0.190995 0.067,0.419201 -0.0209,0.507119 -0.0879,0.08792 -0.15045,-0.06835 -0.13896,-0.347265 z m 12.74583,-7.650869 c 0.003,-0.582084 0.0571,-0.789054 0.12041,-0.459936 0.0633,0.329118 0.0609,0.805368 -0.005,1.058333 -0.0662,0.252966 -0.118,-0.01633 -0.11507,-0.598397 z M 6.8460594,42.300745 c 0,-0.509323 0.05445,-0.717682 0.1210001,-0.463021 0.06655,0.254661 0.06655,0.67138 0,0.926042 -0.06655,0.254661 -0.1210001,0.0463 -0.1210001,-0.463021 z M 110.78681,42.410989 c 0.0127,-0.308227 0.0754,-0.37092 0.15985,-0.159854 0.0764,0.190995 0.067,0.419198 -0.0209,0.507119 -0.0879,0.08792 -0.15046,-0.06835 -0.13897,-0.347265 z m 10.87861,-0.771703 c 0.005,-0.436562 0.0647,-0.583125 0.13177,-0.325694 0.0671,0.257432 0.0627,0.614619 -0.01,0.79375 -0.0725,0.179131 -0.12736,-0.03149 -0.12197,-0.468056 z m -10.34944,-2.667881 c 0.0127,-0.308226 0.0754,-0.370919 0.15985,-0.159853 0.0764,0.190995 0.067,0.419198 -0.0209,0.507119 -0.0879,0.08792 -0.15045,-0.06835 -0.13896,-0.347266 z m 10.36458,-2.623785 c 0.003,-0.582083 0.0571,-0.789054 0.12041,-0.459936 0.0633,0.329118 0.0609,0.805368 -0.005,1.058333 -0.0662,0.252966 -0.118,-0.01632 -0.11506,-0.598397 z M 21.204467,34.892412 c 0.26339,-0.291042 0.538422,-0.529167 0.611182,-0.529167 0.07276,0 -0.08321,0.238125 -0.346599,0.529167 -0.26339,0.291041 -0.538422,0.529166 -0.611182,0.529166 -0.07276,0 0.08321,-0.238125 0.346599,-0.529166 z m 20.455598,-1.503657 c 0.190995,-0.07643 0.419198,-0.06703 0.507119,0.02088 0.08792,0.08792 -0.06835,0.150453 -0.347265,0.138965 -0.308227,-0.0127 -0.37092,-0.07539 -0.159854,-0.159851 z m 9.177735,-3.78801 c 0.26339,-0.291042 0.538421,-0.529167 0.611182,-0.529167 0.07276,0 -0.08321,0.238125 -0.346599,0.529167 -0.26339,0.291042 -0.538422,0.529167 -0.611182,0.529167 -0.07276,0 0.08321,-0.238125 0.346599,-0.529167 z m 44.268098,-2.032823 c 0.190995,-0.07643 0.4192,-0.06703 0.507119,0.02088 0.08792,0.08792 -0.06835,0.150452 -0.347266,0.138964 -0.308226,-0.0127 -0.370919,-0.07539 -0.159853,-0.15985 z m -1.322917,-0.264583 c 0.190995,-0.07643 0.419201,-0.06703 0.507119,0.02088 0.08792,0.08792 -0.06835,0.150453 -0.347265,0.138965 -0.308227,-0.0127 -0.37092,-0.07539 -0.159854,-0.159851 z M 54.16598,19.921406 c 0.0127,-0.308227 0.07539,-0.37092 0.159851,-0.159854 0.07643,0.190995 0.06703,0.419198 -0.02088,0.507119 -0.08792,0.08792 -0.150452,-0.06835 -0.138964,-0.347265 z M 103.57256,19.895 c 0.191,-0.07643 0.41921,-0.06703 0.50712,0.02088 0.0879,0.08792 -0.0683,0.150453 -0.34726,0.138964 -0.30823,-0.0127 -0.37092,-0.07539 -0.15986,-0.15985 z m -52.495315,-6.499984 -0.504029,-0.595312 0.595313,0.504028 c 0.559445,0.473663 0.715761,0.686597 0.504028,0.686597 -0.05021,0 -0.318098,-0.267891 -0.595312,-0.595313 z m -18.89257,-0.330729 c 0.341775,-0.363802 0.68094,-0.661458 0.7537,-0.661458 0.07276,0 -0.147341,0.297656 -0.489117,0.661458 -0.341775,0.363802 -0.680939,0.661458 -0.7537,0.661458 -0.07276,0 0.147341,-0.297656 0.489117,-0.661458 z m 40.878124,-0.396875 c 0.26339,-0.291042 0.538422,-0.529167 0.611183,-0.529167 0.07276,0 -0.08321,0.238125 -0.346599,0.529167 -0.26339,0.291042 -0.538422,0.529167 -0.611183,0.529167 -0.07276,0 0.08321,-0.238125 0.346599,-0.529167 z M 90.62384,12.204391 c -0.329107,-0.419644 -0.319748,-0.429002 0.0999,-0.0999 0.440729,0.345644 0.580887,0.562916 0.363124,0.562916 -0.05494,0 -0.2633,-0.208359 -0.463021,-0.463021 z M 40.457939,9.3090581 c 0.257432,-0.067083 0.614619,-0.062672 0.79375,0.0098 0.179131,0.072475 -0.03149,0.127362 -0.468056,0.1219698 -0.436562,-0.00539 -0.583126,-0.06469 -0.325694,-0.1317736 z m 1.5875,0 c 0.257432,-0.067083 0.614619,-0.062672 0.79375,0.0098 0.179131,0.072475 -0.03149,0.127362 -0.468056,0.1219698 -0.436562,-0.00539 -0.583126,-0.06469 -0.325694,-0.1317736 z m 42.477126,0.00262 c 0.190995,-0.076431 0.4192,-0.067031 0.507119,0.020889 0.08792,0.087919 -0.06835,0.150453 -0.347266,0.1389645 -0.308226,-0.012695 -0.370919,-0.075391 -0.159853,-0.1598525 z m -3.191537,-0.270574 c 0.327422,-0.063064 0.863203,-0.063064 1.190625,0 0.327422,0.063064 0.05953,0.1146622 -0.595312,0.1146622 -0.654844,0 -0.922735,-0.051598 -0.595313,-0.1146622 z"
         id="path143"
         inkscape:connector-curvature="0" />
      <path
         style="fill:#999999;fill-opacity:1;stroke-width:0.26458332"
         d="m 111.22894,184.98902 c 0.32743,-0.0631 0.86321,-0.0631 1.19063,0 0.32742,0.0631 0.0595,0.11466 -0.59531,0.11466 -0.65485,0 -0.92274,-0.0516 -0.59532,-0.11466 z m 2.39779,0.006 c 0.191,-0.0764 0.4192,-0.067 0.50712,0.0209 0.0879,0.0879 -0.0683,0.15046 -0.34727,0.13897 -0.30822,-0.0127 -0.37092,-0.0754 -0.15985,-0.15985 z m -5.96966,-0.27335 c 0.40018,-0.0606 1.05503,-0.0606 1.45521,0 0.40018,0.0606 0.0728,0.11022 -0.72761,0.11022 -0.80036,0 -1.12778,-0.0496 -0.7276,-0.11022 z m 8.33437,0.003 c 0.32743,-0.0631 0.86321,-0.0631 1.19063,0 0.32742,0.0631 0.0595,0.11466 -0.59531,0.11466 -0.65485,0 -0.92274,-0.0516 -0.59532,-0.11466 z m -10.97657,-0.26772 c 0.40219,-0.0608 0.9975,-0.0592 1.32292,0.004 0.32542,0.0628 -0.004,0.11256 -0.73124,0.11057 -0.72761,-0.002 -0.99386,-0.0534 -0.59168,-0.11418 z m 13.62241,0.003 c 0.32742,-0.0631 0.8632,-0.0631 1.19062,0 0.32742,0.0631 0.0595,0.11467 -0.59531,0.11467 -0.65484,0 -0.92273,-0.0516 -0.59531,-0.11467 z m 6.54844,-1.13617 c 0.29104,-0.12507 0.70776,-0.22739 0.92604,-0.22739 0.25016,0 0.20125,0.0841 -0.13229,0.22739 -0.29105,0.12507 -0.70777,0.22739 -0.92605,0.22739 -0.25015,0 -0.20125,-0.0841 0.1323,-0.22739 z m -26.640239,-0.18074 c 0.190995,-0.0764 0.419201,-0.067 0.507119,0.0209 0.08792,0.0879 -0.06835,0.15045 -0.347265,0.13896 -0.308227,-0.0127 -0.37092,-0.0754 -0.159854,-0.15985 z m -4.183724,-1.40676 c -0.218281,-0.14107 -0.277812,-0.25648 -0.132291,-0.25648 0.145521,0 0.443177,0.11541 0.661458,0.25648 0.218281,0.14106 0.277812,0.25648 0.132292,0.25648 -0.145521,0 -0.443177,-0.11542 -0.661459,-0.25648 z m -2.38125,-1.19063 c -0.363802,-0.20796 -0.535387,-0.38234 -0.381299,-0.38749 0.154088,-0.005 0.511276,0.16543 0.79375,0.37908 0.653251,0.49409 0.444601,0.49835 -0.412451,0.008 z m 41.539583,-0.13229 c 0.21828,-0.14106 0.51594,-0.25648 0.66146,-0.25648 0.14552,0 0.086,0.11542 -0.13229,0.25648 -0.21828,0.14107 -0.51594,0.25648 -0.66146,0.25648 -0.14552,0 -0.086,-0.11541 0.13229,-0.25648 z m 2.49797,-1.17603 c 0.28247,-0.22631 0.62974,-0.41147 0.7717,-0.41147 0.33616,0 0.18606,0.12221 -0.62384,0.50793 -0.62369,0.29703 -0.63213,0.29152 -0.14786,-0.0965 z m -47.969467,-1.21402 c -0.343546,-0.2862 -0.510826,-0.52036 -0.371737,-0.52036 0.139089,0 0.468386,0.23812 0.731776,0.52916 0.605071,0.6686 0.448485,0.66477 -0.360039,-0.009 z m 50.293847,-0.14432 c 0.25119,-0.26226 0.51367,-0.41989 0.58328,-0.35028 0.0696,0.0696 -0.13592,0.28418 -0.45673,0.47684 -0.55729,0.33468 -0.56293,0.32904 -0.12655,-0.12656 z m -52.860869,-2.02969 -0.777105,-0.8599 0.859896,0.77711 c 0.801544,0.72437 0.981511,0.94269 0.777105,0.94269 -0.04554,0 -0.432488,-0.38696 -0.859896,-0.8599 z m 56.218839,-0.03 c 0.35235,-0.43386 1.34468,-1.08987 1.34468,-0.88894 0,0.0505 -0.38695,0.37512 -0.8599,0.72134 -0.5321,0.38953 -0.7169,0.45342 -0.48478,0.1676 z m -58.437955,-2.13886 -1.177425,-1.33685 1.296953,1.24749 c 0.713325,0.68612 1.243166,1.2877 1.177425,1.33685 -0.06574,0.0492 -0.649367,-0.51222 -1.296953,-1.24749 z m 60.708675,0.46302 c 0.14552,-0.14859 0.80037,-0.73006 1.45521,-1.29216 0.79079,-0.67879 0.96849,-0.77147 0.52917,-0.27597 -0.36381,0.41032 -1.01865,0.99179 -1.45521,1.29216 -0.43656,0.30036 -0.67469,0.42455 -0.52917,0.27597 z m -32.4776,-1.32513 c 0.32742,-0.0631 0.8632,-0.0631 1.19062,0 0.32742,0.0631 0.0595,0.11466 -0.59531,0.11466 -0.65484,0 -0.92273,-0.0516 -0.59531,-0.11466 z m 3.97349,-0.005 c 0.47555,-0.0589 1.18992,-0.0577 1.5875,0.003 0.39757,0.0604 0.008,0.10855 -0.86464,0.10706 -0.87312,-0.002 -1.19841,-0.0509 -0.72286,-0.10976 z m 4.24513,-0.25357 c 0.19099,-0.0764 0.4192,-0.067 0.50712,0.0209 0.0879,0.0879 -0.0684,0.15045 -0.34727,0.13897 -0.30823,-0.0127 -0.37092,-0.0754 -0.15985,-0.15985 z M 107.8059,172.295 c 0.19099,-0.0764 0.4192,-0.067 0.50712,0.0209 0.0879,0.0879 -0.0684,0.15045 -0.34727,0.13896 -0.30823,-0.0127 -0.37092,-0.0754 -0.15985,-0.15985 z m 13.5654,0.0824 c 0.0606,-0.0541 0.70556,-0.16715 1.43317,-0.25118 0.89215,-0.10304 1.10753,-0.0796 0.66145,0.072 -0.66103,0.22466 -2.30296,0.36511 -2.09462,0.17916 z m -15.23558,-0.43077 c -0.33355,-0.14333 -0.38245,-0.22739 -0.1323,-0.22739 0.21829,0 0.635,0.10232 0.92605,0.22739 0.33354,0.14333 0.38245,0.22739 0.13229,0.22739 -0.21828,0 -0.635,-0.10233 -0.92604,-0.22739 z m -24.772296,-0.46302 c -0.329107,-0.41965 -0.319749,-0.42901 0.0999,-0.0999 0.254661,0.19972 0.463021,0.40808 0.463021,0.46302 0,0.21776 -0.217273,0.0776 -0.562917,-0.36312 z m 21.729586,-0.59532 c -0.21828,-0.14106 -0.27782,-0.25648 -0.13229,-0.25648 0.14552,0 0.44317,0.11542 0.66145,0.25648 0.21829,0.14107 0.27782,0.25648 0.1323,0.25648 -0.14553,0 -0.44318,-0.11541 -0.66146,-0.25648 z m 24.07708,0.20879 c 0.0728,-0.0716 0.54629,-0.2702 1.05229,-0.44128 0.50601,-0.17108 0.80366,-0.19718 0.66146,-0.058 -0.1422,0.13918 -0.61573,0.33775 -1.05229,0.44128 -0.43656,0.10353 -0.73422,0.12963 -0.66146,0.058 z m -47.22514,-1.43199 c -0.25011,-0.38172 -0.323977,-0.61321 -0.164142,-0.51443 0.305433,0.18877 0.921457,1.20847 0.730062,1.20847 -0.06114,0 -0.315806,-0.31232 -0.56592,-0.69404 z m 20.039203,-0.3614 c -1.194707,-0.72842 -1.082934,-0.90649 0.132287,-0.21076 1.22225,0.69976 1.27169,0.73727 0.97014,0.73604 -0.13339,-5.3e-4 -0.62948,-0.23692 -1.102427,-0.52528 z m 30.890107,0.26169 c 0.21828,-0.14107 0.51593,-0.25648 0.66146,-0.25648 0.14552,0 0.086,0.11541 -0.1323,0.25648 -0.21828,0.14106 -0.51593,0.25648 -0.66145,0.25648 -0.14553,0 -0.086,-0.11542 0.13229,-0.25648 z M 97.306736,167.4262 c -0.746614,-0.59446 -1.357479,-1.14458 -1.357479,-1.2225 0,-0.0779 0.565547,0.30975 1.256771,0.86146 1.63966,1.30872 1.788239,1.44188 1.608833,1.44188 -0.08286,0 -0.761513,-0.48638 -1.508125,-1.08084 z m 35.948774,0.97686 c 0,-0.0572 0.18477,-0.17489 0.41061,-0.26155 0.23546,-0.0904 0.34167,-0.046 0.24897,0.10398 -0.15538,0.25141 -0.65958,0.37186 -0.65958,0.15757 z m 17.70966,-1.15279 c 0.63722,-0.76398 1.20949,-1.38906 1.2717,-1.38906 0.17959,0 -1.44994,1.99625 -1.96458,2.4067 -0.25614,0.20428 0.0557,-0.25365 0.69288,-1.01764 z m -72.60772,0.0336 c -0.25011,-0.38172 -0.323977,-0.61321 -0.164142,-0.51443 0.305433,0.18877 0.921457,1.20847 0.730062,1.20847 -0.06114,0 -0.315806,-0.31232 -0.56592,-0.69404 z m 57.27931,-0.21339 c 0,-0.0728 0.23812,-0.25973 0.52916,-0.41549 0.29105,-0.15576 0.52917,-0.22367 0.52917,-0.15091 0,0.0728 -0.23812,0.25973 -0.52917,0.41549 -0.29104,0.15576 -0.52916,0.22367 -0.52916,0.15091 z m -41.024662,-2.20143 -0.911799,-0.99219 0.992187,0.9118 c 0.545704,0.50149 0.992188,0.94798 0.992188,0.99219 0,0.20204 -0.223896,0.0117 -1.072576,-0.9118 z m 58.249132,0.012 c 0.19266,-0.3208 0.40724,-0.52633 0.47684,-0.45672 0.0696,0.0696 -0.088,0.33208 -0.35028,0.58328 -0.45559,0.43637 -0.46123,0.43074 -0.12656,-0.12656 z m -12.19739,-2.06256 c 0.79042,-0.80036 1.49666,-1.45521 1.56942,-1.45521 0.0728,0 -0.51442,0.65485 -1.30484,1.45521 -0.79042,0.80037 -1.49666,1.45521 -1.56942,1.45521 -0.0728,0 0.51442,-0.65484 1.30484,-1.45521 z m -64.673614,0.20985 c -0.143584,-0.37708 -0.113194,-0.40747 0.148114,-0.14811 0.180821,0.17947 0.262115,0.39297 0.180652,0.47443 -0.08146,0.0815 -0.229407,-0.0654 -0.328766,-0.32632 z m 16.791305,-0.1437 c -0.752785,-0.89501 -1.859357,-2.40469 -1.859357,-2.5367 0,-0.1775 0.135051,-0.0266 1.441881,1.61066 0.551712,0.69122 0.933934,1.25677 0.849382,1.25677 -0.08455,0 -0.278911,-0.14883 -0.431906,-0.33073 z m 62.566679,-1.52136 c 0.22576,-0.43656 0.47,-0.79375 0.54276,-0.79375 0.0728,0 -0.0524,0.35719 -0.27817,0.79375 -0.22576,0.43657 -0.47,0.79375 -0.54276,0.79375 -0.0728,0 0.0524,-0.35718 0.27817,-0.79375 z m -12.43541,-1.05833 c 0.26339,-0.29104 0.53842,-0.52917 0.61118,-0.52917 0.0728,0 -0.0832,0.23813 -0.3466,0.52917 -0.26339,0.29104 -0.53842,0.52917 -0.61118,0.52917 -0.0728,0 0.0832,-0.23813 0.3466,-0.52917 z m 1.45521,-1.85208 c 0.15576,-0.29105 0.34273,-0.52917 0.41549,-0.52917 0.0728,0 0.005,0.23812 -0.15091,0.52917 -0.15576,0.29104 -0.34273,0.52916 -0.41549,0.52916 -0.0728,0 -0.005,-0.23812 0.15091,-0.52916 z m -71.272524,-1.99461 c -0.255318,-0.66534 -0.179999,-0.83702 0.131903,-0.30065 0.154434,0.26557 0.225054,0.5386 0.156932,0.60672 -0.06812,0.0681 -0.198099,-0.0696 -0.288835,-0.30607 z m 72.595434,-0.12206 c 0.15576,-0.29104 0.34274,-0.52917 0.4155,-0.52917 0.0728,0 0.005,0.23813 -0.15091,0.52917 -0.15576,0.29104 -0.34274,0.52917 -0.4155,0.52917 -0.0728,0 -0.005,-0.23813 0.15091,-0.52917 z m 12.43542,0.2802 c 0,-0.13693 0.1177,-0.32171 0.26155,-0.41062 0.14999,-0.0927 0.19434,0.0135 0.10399,0.24897 -0.17589,0.45837 -0.36554,0.54223 -0.36554,0.16165 z m -69.685021,-0.42272 c -0.255318,-0.66535 -0.179999,-0.83702 0.131903,-0.30066 0.154434,0.26558 0.225054,0.5386 0.156932,0.60673 -0.06812,0.0681 -0.198099,-0.0696 -0.288835,-0.30607 z m 58.326691,-1.31269 c 0,-0.14552 0.17015,-0.56224 0.37812,-0.92604 0.20797,-0.3638 0.37813,-0.5424 0.37813,-0.39688 0,0.14553 -0.17016,0.56224 -0.37813,0.92605 -0.20797,0.3638 -0.37812,0.54239 -0.37812,0.39687 z m -59.649608,-1.33314 c -0.255317,-0.66535 -0.179998,-0.83703 0.131903,-0.30066 0.154435,0.26557 0.225055,0.5386 0.156932,0.60672 -0.06812,0.0681 -0.198098,-0.0696 -0.288835,-0.30606 z m 61.137758,-1.83854 c 0.24201,-0.50749 0.48699,-0.87574 0.5444,-0.81833 0.12104,0.12103 -0.68215,1.74105 -0.86319,1.74105 -0.0667,0 0.0768,-0.41522 0.31879,-0.92272 z m 12.52412,-0.79707 c 0,-0.14552 0.11541,-0.44318 0.25648,-0.66146 0.14106,-0.21828 0.25648,-0.27781 0.25648,-0.13229 0,0.14552 -0.11542,0.44318 -0.25648,0.66146 -0.14107,0.21828 -0.25648,0.27781 -0.25648,0.13229 z m -74.984794,-0.53939 c -0.255318,-0.66535 -0.179999,-0.83703 0.131902,-0.30066 0.154435,0.26557 0.225055,0.5386 0.156933,0.60672 -0.06812,0.0681 -0.198099,-0.0696 -0.288835,-0.30606 z m 63.886834,-1.84186 c 0.0275,-0.50118 0.46852,-1.3451 0.48387,-0.92604 0.008,0.21828 -0.10087,0.57547 -0.24193,0.79375 -0.14107,0.21828 -0.24994,0.27781 -0.24194,0.13229 z m 12.44996,-1.19062 c 0,-0.21828 0.10233,-0.635 0.22739,-0.92605 0.14333,-0.33354 0.22739,-0.38244 0.22739,-0.13229 0,0.21828 -0.10232,0.635 -0.22739,0.92604 -0.14333,0.33355 -0.22739,0.38245 -0.22739,0.1323 z m -77.8038,-1.47726 c 0.0127,-0.30823 0.07539,-0.37092 0.15985,-0.15985 0.07643,0.19099 0.06703,0.4192 -0.02088,0.50712 -0.08792,0.0879 -0.150453,-0.0684 -0.138965,-0.34727 z m -14.806864,-0.68392 c -0.01688,-0.24276 -0.09921,-0.65947 -0.182962,-0.92604 -0.144325,-0.45937 -0.136493,-0.46007 0.150093,-0.0133 0.166298,0.25923 0.248629,0.67595 0.182959,0.92604 -0.107563,0.40964 -0.122438,0.41096 -0.15009,0.0133 z m 81.746444,-1.69733 c 0.0127,-0.30823 0.0754,-0.37092 0.15985,-0.15985 0.0764,0.19099 0.067,0.4192 -0.0209,0.50712 -0.0879,0.0879 -0.15046,-0.0684 -0.13897,-0.34727 z m -67.73333,-0.26458 c 0.0127,-0.30823 0.07539,-0.37092 0.15985,-0.15986 0.07643,0.191 0.06703,0.4192 -0.02088,0.50712 -0.08792,0.0879 -0.150453,-0.0684 -0.138965,-0.34726 z m -0.529167,-2.11667 c 0.0127,-0.30823 0.07539,-0.37092 0.159851,-0.15985 0.07643,0.19099 0.06703,0.4192 -0.02088,0.50712 -0.08792,0.0879 -0.150453,-0.0684 -0.138964,-0.34727 z m -14.816666,-1.05833 c 0.0127,-0.30823 0.07539,-0.37092 0.15985,-0.15986 0.07643,0.191 0.06703,0.4192 -0.02088,0.50712 -0.08792,0.0879 -0.150453,-0.0684 -0.138965,-0.34726 z m 84.169353,-0.24254 c 0,-0.29104 0.0953,-0.82682 0.21184,-1.19062 0.16774,-0.52377 0.21184,-0.55131 0.21184,-0.13229 0,0.29104 -0.0953,0.82682 -0.21184,1.19062 -0.16774,0.52376 -0.21184,0.5513 -0.21184,0.13229 z m -84.69852,-1.60955 c 0.0127,-0.30822 0.07539,-0.37092 0.159851,-0.15985 0.07643,0.191 0.06703,0.4192 -0.02088,0.50712 -0.08792,0.0879 -0.150453,-0.0684 -0.138964,-0.34727 z M 81.808749,136.61 c -0.09961,-0.53097 -0.128198,-1.01833 -0.06352,-1.083 0.06468,-0.0647 0.199094,0.31684 0.298704,0.84782 0.09961,0.53098 0.128199,1.01833 0.06352,1.083 -0.06467,0.0647 -0.199093,-0.31684 -0.298704,-0.84782 z m 82.983751,0.0147 c 0.005,-0.43656 0.0647,-0.58312 0.13178,-0.32569 0.0671,0.25743 0.0627,0.61462 -0.01,0.79375 -0.0725,0.17913 -0.12736,-0.0315 -0.12197,-0.46806 z m 0.2339,-1.60955 c 0.0127,-0.30822 0.0754,-0.37092 0.15985,-0.15985 0.0764,0.191 0.067,0.4192 -0.0209,0.50712 -0.0879,0.0879 -0.15045,-0.0683 -0.13896,-0.34727 z M 66.601397,134.2214 c 0.0127,-0.30822 0.07539,-0.37092 0.15985,-0.15985 0.07643,0.191 0.06703,0.4192 -0.02088,0.50712 -0.08792,0.0879 -0.150453,-0.0684 -0.138965,-0.34727 z m 86.783333,0 c 0.0127,-0.30822 0.0754,-0.37092 0.15985,-0.15985 0.0764,0.191 0.067,0.4192 -0.0209,0.50712 -0.0879,0.0879 -0.15045,-0.0684 -0.13896,-0.34727 z m 0.29527,-1.30086 c 0.005,-0.43657 0.0647,-0.58313 0.13178,-0.3257 0.0671,0.25743 0.0627,0.61462 -0.01,0.79375 -0.0725,0.17913 -0.12736,-0.0315 -0.12197,-0.46805 z m 0.27439,-1.7198 c 0,-0.50932 0.0545,-0.71768 0.121,-0.46302 0.0666,0.25466 0.0666,0.67138 0,0.92604 -0.0666,0.25467 -0.121,0.0463 -0.121,-0.46302 z m -73.450571,-0.67168 c -0.09074,-0.23646 -0.152791,-0.68808 -0.137895,-1.0036 0.01712,-0.36266 0.106992,-0.23371 0.244329,0.35057 0.231119,0.98328 0.16827,1.36889 -0.106434,0.65303 z M 65.27848,129.72349 c 0.0127,-0.30823 0.07539,-0.37092 0.159851,-0.15986 0.07643,0.191 0.06703,0.4192 -0.02088,0.50712 -0.08792,0.0879 -0.150453,-0.0684 -0.138964,-0.34726 z m 100.7241,-0.15482 c 0.15374,-0.15374 0.43572,-0.22748 0.6266,-0.16385 0.19816,0.066 0.0782,0.18598 -0.27955,0.27954 -0.44009,0.11509 -0.54339,0.0806 -0.34705,-0.11569 z m 2.70709,-0.85908 c 0.3638,-0.19432 0.95912,-0.42741 1.32292,-0.51799 0.3638,-0.0906 0.18521,0.0644 -0.39688,0.34428 -1.19735,0.57581 -1.93948,0.71501 -0.92604,0.17371 z m -16.93333,-0.41926 c -0.21828,-0.14107 -0.27781,-0.25648 -0.13229,-0.25648 0.14552,0 0.44318,0.11541 0.66146,0.25648 0.21828,0.14106 0.27781,0.25648 0.13229,0.25648 -0.14552,0 -0.44318,-0.11542 -0.66146,-0.25648 z m -2.23338,-1.19904 c -0.28248,-0.21366 -0.38635,-0.38846 -0.23084,-0.38846 0.15552,0 0.43098,0.17859 0.61214,0.39687 0.41201,0.49644 0.2824,0.49358 -0.3813,-0.008 z m -1.23995,-0.85148 c -0.32911,-0.41965 -0.31975,-0.42901 0.0999,-0.0999 0.25466,0.19972 0.46302,0.40808 0.46302,0.46302 0,0.21776 -0.21727,0.0776 -0.56291,-0.36312 z m -95.530445,0.0177 c 0.190995,-0.0764 0.419201,-0.067 0.507119,0.0209 0.08792,0.0879 -0.06835,0.15045 -0.347265,0.13897 -0.308227,-0.0127 -0.37092,-0.0754 -0.159854,-0.15985 z m -2.926953,-0.52366 c 0.181901,-0.0734 0.479557,-0.0734 0.661458,0 0.181902,0.0734 0.03307,0.13345 -0.330729,0.13345 -0.363802,0 -0.51263,-0.0601 -0.330729,-0.13345 z m 124.420308,-0.0894 c 0,-0.14552 0.12609,-0.26458 0.2802,-0.26458 0.15411,0 0.20661,0.11906 0.11668,0.26458 -0.0899,0.14552 -0.21603,0.26459 -0.2802,0.26459 -0.0642,0 -0.11668,-0.11907 -0.11668,-0.26459 z m -28.98432,-1.91823 -1.04589,-1.12447 1.12448,1.04588 c 1.04576,0.97266 1.24607,1.20307 1.04589,1.20307 -0.0432,0 -0.54924,-0.50601 -1.12448,-1.12448 z m -100.264634,0.59532 c -0.431379,-0.18537 -0.446487,-0.23083 -0.08176,-0.24599 0.246073,-0.0102 0.520991,0.10047 0.610928,0.24599 0.188029,0.30424 0.178835,0.30424 -0.529168,0 z m 34.263542,0.0156 c 0,-0.13694 0.117699,-0.32171 0.261553,-0.41062 0.149982,-0.0927 0.194337,0.0135 0.103984,0.24897 -0.175892,0.45837 -0.365537,0.54224 -0.365537,0.16165 z M 42.238841,123.1309 c -0.363802,-0.20797 -0.535387,-0.38234 -0.381299,-0.3875 0.154089,-0.005 0.511276,0.16543 0.79375,0.37909 0.653251,0.49409 0.444601,0.49835 -0.412451,0.008 z m 134.408329,0.29698 c 0,-0.0549 0.20836,-0.2633 0.46302,-0.46302 0.41965,-0.32911 0.42901,-0.31975 0.0999,0.0999 -0.34564,0.44073 -0.56292,0.58088 -0.56292,0.36312 z m -94.323954,-0.42927 c 0.291042,-0.12507 0.70776,-0.22739 0.926042,-0.22739 0.250158,0 0.201252,0.0841 -0.132292,0.22739 -0.291042,0.12507 -0.707761,0.22739 -0.926042,0.22739 -0.250158,0 -0.201252,-0.0841 0.132292,-0.22739 z m 60.721874,-1.98437 c -0.45054,-0.65485 -0.75964,-1.19063 -0.68688,-1.19063 0.0728,0 0.50092,0.53578 0.95146,1.19063 0.45055,0.65484 0.75964,1.19062 0.68688,1.19062 -0.0728,0 -0.50092,-0.53578 -0.95146,-1.19062 z m -103.317917,0.66448 c -0.09269,-0.14998 0.01352,-0.19433 0.248968,-0.10398 0.458369,0.17589 0.542234,0.36554 0.16165,0.36554 -0.136933,0 -0.321713,-0.1177 -0.410618,-0.26156 z m 139.715137,-1.66808 c 0.0994,-0.26094 0.2473,-0.40778 0.32876,-0.32632 0.0815,0.0815 1.7e-4,0.29495 -0.18065,0.47443 -0.26131,0.25936 -0.2917,0.22897 -0.14811,-0.14811 z m -144.910135,-2.2375 c -0.329108,-0.41965 -0.319749,-0.429 0.0999,-0.0999 0.254661,0.19972 0.463021,0.40808 0.463021,0.46302 0,0.21777 -0.217274,0.0776 -0.562917,-0.36312 z m 145.968465,0.12088 c 0.0994,-0.26094 0.2473,-0.40778 0.32877,-0.32632 0.0815,0.0815 1.7e-4,0.29496 -0.18066,0.47443 -0.2613,0.25936 -0.29169,0.22897 -0.14811,-0.14811 z m -85.680272,-0.21986 c 0.179477,-0.18082 0.392969,-0.26211 0.474432,-0.18065 0.08146,0.0815 -0.06538,0.22941 -0.326319,0.32877 -0.377084,0.14358 -0.407474,0.11319 -0.148113,-0.14812 z m 1.525764,-1.0255 c 0.26339,-0.29104 0.538422,-0.52917 0.611183,-0.52917 0.07276,0 -0.08321,0.23813 -0.346599,0.52917 -0.26339,0.29104 -0.538422,0.52917 -0.611183,0.52917 -0.07276,0 0.08321,-0.23813 0.346599,-0.52917 z m -63.136874,-0.19844 c -0.329107,-0.41964 -0.319749,-0.429 0.0999,-0.0999 0.44073,0.34564 0.580887,0.56291 0.363125,0.56291 -0.05494,0 -0.2633,-0.20836 -0.463021,-0.46302 z m 107.210892,-1.01423 c 0.0127,-0.30823 0.0754,-0.37092 0.15985,-0.15986 0.0764,0.191 0.067,0.4192 -0.0209,0.50712 -0.0879,0.0879 -0.15045,-0.0683 -0.13896,-0.34726 z m -41.714117,-0.68836 c 0.570339,-0.50588 1.446847,-1.38644 1.947797,-1.95678 0.62108,-0.70712 0.7404,-0.78449 0.37509,-0.24323 -0.55524,0.82267 -1.910534,2.14618 -2.830704,2.76433 -0.291042,0.19552 -0.06252,-0.0584 0.507817,-0.56432 z m -67.335134,-0.14949 -0.641432,-0.7276 0.727604,0.64143 c 0.680056,0.59951 0.848939,0.81377 0.641432,0.81377 -0.04739,0 -0.374814,-0.32742 -0.727604,-0.7276 z m -1.195737,-1.45521 -0.504029,-0.59531 0.595313,0.50403 c 0.559445,0.47366 0.715761,0.68659 0.504028,0.68659 -0.05021,0 -0.318098,-0.26789 -0.595312,-0.59531 z m -1.463821,-1.98437 c -0.329107,-0.41965 -0.319749,-0.42901 0.0999,-0.0999 0.254662,0.19972 0.463021,0.40808 0.463021,0.46302 0,0.21776 -0.217273,0.0776 -0.562917,-0.36312 z m 73.058749,0.28354 c 0,-0.14722 0.26789,-0.49449 0.59531,-0.7717 l 0.59532,-0.50403 -0.52635,0.66146 c -0.28949,0.3638 -0.55738,0.71106 -0.59531,0.7717 -0.0379,0.0606 -0.069,-0.0102 -0.069,-0.15743 z m -44.114235,-0.79763 c 0.257432,-0.0671 0.61462,-0.0627 0.79375,0.01 0.179131,0.0725 -0.03149,0.12736 -0.468055,0.12197 -0.436563,-0.005 -0.583126,-0.0647 -0.325695,-0.13177 z m 10.713675,-0.004 c 0.329118,-0.0633 0.805368,-0.0609 1.058334,0.005 0.252965,0.0662 -0.01632,0.11801 -0.598398,0.11507 -0.582083,-0.003 -0.789054,-0.0571 -0.459936,-0.1204 z M 56.476732,110.3825 c 0.190995,-0.0764 0.4192,-0.067 0.507119,0.0209 0.08792,0.0879 -0.06835,0.15045 -0.347266,0.13897 -0.308226,-0.0127 -0.370919,-0.0754 -0.159853,-0.15985 z m 14.00638,0.006 c 0.181901,-0.0734 0.479557,-0.0734 0.661458,0 0.181901,0.0734 0.03307,0.13345 -0.330729,0.13345 -0.363802,0 -0.51263,-0.0601 -0.330729,-0.13345 z m -42.742466,-0.63056 c -0.177625,-0.2844 -0.215622,-0.51711 -0.08444,-0.51711 0.237535,0 0.646617,0.79504 0.48978,0.95188 -0.04531,0.0453 -0.227719,-0.15033 -0.405344,-0.43475 z m 44.611086,0.36047 c 0.190994,-0.0764 0.4192,-0.067 0.507119,0.0209 0.08792,0.0879 -0.06835,0.15045 -0.347266,0.13897 -0.308226,-0.0127 -0.370919,-0.0754 -0.159853,-0.15986 z m 3.96875,-0.79375 c 0.190994,-0.0764 0.4192,-0.067 0.507118,0.0209 0.08792,0.0879 -0.06835,0.15045 -0.347265,0.13897 -0.308226,-0.0127 -0.370919,-0.0754 -0.159853,-0.15986 z m -25.480809,-0.60999 c -0.09269,-0.14998 0.01352,-0.19433 0.248968,-0.10398 0.458369,0.17589 0.542234,0.36554 0.161649,0.36554 -0.136932,0 -0.321712,-0.1177 -0.410617,-0.26156 z m -24.310853,-0.9393 c -0.255318,-0.66534 -0.179999,-0.83702 0.131903,-0.30065 0.154434,0.26557 0.225054,0.5386 0.156932,0.60672 -0.06812,0.0681 -0.198099,-0.0696 -0.288835,-0.30607 z m 22.176737,-0.004 c -0.48427,-0.38798 -0.475827,-0.39349 0.147868,-0.0965 0.809897,0.38571 0.959998,0.50792 0.623834,0.50792 -0.141962,0 -0.489228,-0.18516 -0.771702,-0.41147 z m 32.294742,0.1469 c 0.727364,-0.31256 1.145109,-0.31256 0.661459,0 -0.218282,0.14107 -0.575469,0.24994 -0.79375,0.24194 -0.261689,-0.01 -0.216625,-0.092 0.132291,-0.24194 z m -34.829543,-1.6032 -0.624623,-0.54487 0.79375,0.46479 c 1.044689,0.61173 1.06023,0.62495 0.734867,0.62495 -0.153651,0 -0.560448,-0.24519 -0.903994,-0.54487 z m 58.774334,0.0157 c 0.15576,-0.29104 0.34273,-0.52917 0.41549,-0.52917 0.0728,0 0.005,0.23813 -0.15091,0.52917 -0.15576,0.29104 -0.34273,0.52917 -0.41549,0.52917 -0.0728,0 -0.005,-0.23813 0.15091,-0.52917 z m -20.350868,0.18451 c 0.06063,-0.044 0.467431,-0.28924 0.903994,-0.54487 l 0.79375,-0.4648 -0.624623,0.54487 c -0.343546,0.29968 -0.750343,0.54487 -0.903994,0.54487 -0.153654,0 -0.229759,-0.036 -0.169127,-0.0801 z m 1.830035,-1.08224 c 0,-0.0572 0.184778,-0.17489 0.410618,-0.26156 0.235458,-0.0904 0.341662,-0.046 0.248968,0.10399 -0.15538,0.25141 -0.659586,0.37186 -0.659586,0.15757 z m -43.127082,-1.25123 c -0.922089,-0.80835 -0.922404,-0.80939 -0.07415,-0.24515 0.468543,0.31167 0.922052,0.68018 1.007803,0.81893 0.25523,0.41297 0.04356,0.28289 -0.933656,-0.57378 z m 44.185416,0.72615 c 0,-0.0549 0.208359,-0.2633 0.463021,-0.46302 0.419645,-0.32911 0.429003,-0.31975 0.0999,0.0999 -0.345644,0.44073 -0.562917,0.58089 -0.562917,0.36313 z m 52.937559,-0.31903 c 0.0127,-0.30823 0.0754,-0.37092 0.15985,-0.15985 0.0764,0.19099 0.067,0.4192 -0.0209,0.50712 -0.0879,0.0879 -0.15045,-0.0684 -0.13896,-0.34727 z m -34.68131,-0.0946 c 0,-0.13693 0.1177,-0.32171 0.26155,-0.41061 0.14999,-0.0927 0.19434,0.0135 0.10399,0.24896 -0.17589,0.45837 -0.36554,0.54224 -0.36554,0.16165 z m -17.083465,-0.51591 c 0.18877,-0.30544 1.208466,-0.92146 1.208466,-0.73007 0,0.0611 -0.312317,0.31581 -0.694034,0.56592 -0.38172,0.25012 -0.613214,0.32398 -0.514432,0.16415 z m -46.9457,-1.0872 c -0.238467,-0.15411 -0.2711,-0.2581 -0.08176,-0.26054 0.173313,-0.002 0.3887,0.11502 0.478637,0.26054 0.203015,0.32849 0.111421,0.32849 -0.396875,0 z m -17.925695,-0.8599 c -0.284451,-0.77742 -0.277326,-0.81064 0.07428,-0.3463 0.336487,0.44436 0.535204,1.2062 0.314627,1.2062 -0.04086,0 -0.215869,-0.38696 -0.388911,-0.8599 z m 66.741319,0.33073 c 0.26339,-0.29104 0.538422,-0.52917 0.611182,-0.52917 0.07276,0 -0.08321,0.23813 -0.346599,0.52917 -0.26339,0.29104 -0.538421,0.52917 -0.611182,0.52917 -0.07276,0 0.08321,-0.23813 0.346599,-0.52917 z m 16.568521,-0.79375 c -0.004,-0.21828 0.15536,-0.75406 0.35526,-1.19062 0.46789,-1.021841 0.47475,-0.546554 0.01,0.66145 -0.19614,0.50933 -0.3603,0.74745 -0.36481,0.52917 z m -67.269979,-0.46302 c -0.329107,-0.41965 -0.319749,-0.429 0.0999,-0.0999 0.44073,0.34565 0.580888,0.56292 0.363125,0.56292 -0.05494,0 -0.2633,-0.20836 -0.463021,-0.46302 z m 52.024375,-0.0661 c 0.26339,-0.29104 0.538421,-0.52916 0.611182,-0.52916 0.07276,0 -0.08321,0.23812 -0.346599,0.52916 -0.26339,0.29105 -0.538422,0.52917 -0.611182,0.52917 -0.07276,0 0.08321,-0.23812 0.346599,-0.52917 z m 50.023264,-0.0776 c 0.0994,-0.26094 0.2473,-0.40778 0.32876,-0.32632 0.0815,0.0815 1.7e-4,0.29495 -0.18065,0.47443 -0.26131,0.25936 -0.2917,0.22897 -0.14811,-0.14811 z m 37.83541,-0.37406 c -0.14358,-0.37708 -0.11319,-0.40747 0.14811,-0.14811 0.18083,0.17948 0.26212,0.39297 0.18066,0.47443 -0.0815,0.0815 -0.22941,-0.0654 -0.32877,-0.32632 z m -141.192241,-1.06974 -0.641432,-0.727604 0.727604,0.641432 c 0.400182,0.35279 0.727604,0.680212 0.727604,0.727602 0,0.20751 -0.21426,0.0386 -0.813776,-0.64143 z m 54.788775,-0.330729 c 0.310859,-0.436563 0.624732,-0.79375 0.697492,-0.79375 0.07276,0 -0.12205,0.357187 -0.432909,0.79375 -0.310859,0.436562 -0.624731,0.79375 -0.697492,0.79375 -0.07276,0 0.12205,-0.357188 0.432909,-0.79375 z m -70.62286,0.08779 c -0.01148,-0.17 -0.08941,-0.527188 -0.173159,-0.79375 -0.144741,-0.460698 -0.137274,-0.461275 0.151019,-0.01167 0.166806,0.260143 0.244729,0.617331 0.173156,0.79375 -0.09392,0.231507 -0.13594,0.234756 -0.151016,0.01167 z m 120.499806,-0.45298 c 0.25011,-0.381717 0.50477,-0.694034 0.56592,-0.694034 0.19139,0 -0.42463,1.019697 -0.73007,1.208466 -0.15983,0.09878 -0.086,-0.132712 0.16415,-0.514432 z m -34.77296,-1.371068 c -0.0125,-0.299609 0.16469,-0.775859 0.39376,-1.058333 0.22907,-0.282475 0.33534,-0.355436 0.23616,-0.162134 -0.0992,0.193302 -0.27638,0.669552 -0.39376,1.058333 -0.17125,0.567227 -0.21791,0.599257 -0.23616,0.162134 z M 36.302727,96.882468 c -0.143584,-0.377084 -0.113194,-0.407474 0.148113,-0.148114 0.180822,0.179478 0.262115,0.39297 0.180653,0.474433 -0.08146,0.08146 -0.229407,-0.06538 -0.328766,-0.326319 z m 58.472915,0.109469 c 0.09936,-0.260938 0.247304,-0.407781 0.328766,-0.326319 0.08146,0.08146 1.7e-4,0.294955 -0.180652,0.474432 -0.261308,0.259361 -0.291698,0.228971 -0.148114,-0.148113 z m 82.102368,-0.120881 c -0.32911,-0.419645 -0.31975,-0.429003 0.0999,-0.0999 0.44073,0.345644 0.58089,0.562917 0.36313,0.562917 -0.0549,0 -0.2633,-0.208359 -0.46302,-0.463021 z m -31.31938,-0.859895 c 0.56839,-0.582084 1.09297,-1.058334 1.16573,-1.058334 0.0728,0 -0.33276,0.47625 -0.90115,1.058334 -0.56838,0.582083 -1.09296,1.058333 -1.16572,1.058333 -0.0728,0 0.33275,-0.47625 0.90114,-1.058333 z m 30.56704,0.01035 c -0.21407,-0.135379 -0.32033,-0.315029 -0.23614,-0.399217 0.0842,-0.08419 0.30368,0.0284 0.48775,0.250196 0.38169,0.459904 0.3085,0.503248 -0.25161,0.149021 z M 95.684674,95.481994 c 0.15576,-0.291042 0.342733,-0.529167 0.415494,-0.529167 0.07276,0 0.0048,0.238125 -0.150911,0.529167 -0.15576,0.291042 -0.342733,0.529167 -0.415493,0.529167 -0.07276,0 -0.0048,-0.238125 0.15091,-0.529167 z M 21.36745,95.437488 c -0.01688,-0.24276 -0.09921,-0.659479 -0.182962,-0.926041 -0.144325,-0.459375 -0.136493,-0.460071 0.150093,-0.01333 0.166298,0.259233 0.248629,0.675952 0.182959,0.926041 -0.107563,0.409642 -0.122438,0.410965 -0.15009,0.01333 z m 13.727642,-0.484661 c -0.155761,-0.291041 -0.223671,-0.529166 -0.150911,-0.529166 0.07276,0 0.259734,0.238125 0.415494,0.529166 0.15576,0.291042 0.223671,0.529167 0.15091,0.529167 -0.07276,0 -0.259733,-0.238125 -0.415493,-0.529167 z M 174.23217,94.225223 c -0.3291,-0.419645 -0.31975,-0.429003 0.0999,-0.0999 0.44073,0.345644 0.58089,0.562917 0.36312,0.562917 -0.0549,0 -0.2633,-0.208359 -0.46302,-0.463021 z m -64.50369,-0.485068 c 0.0127,-0.308227 0.0754,-0.37092 0.15985,-0.159854 0.0764,0.190995 0.067,0.419201 -0.0209,0.507119 -0.0879,0.08792 -0.15045,-0.06835 -0.13896,-0.347265 z m 38.34369,0.319026 c 0,-0.05494 0.20836,-0.2633 0.46302,-0.463021 0.41965,-0.329107 0.42901,-0.319748 0.0999,0.0999 -0.34564,0.440729 -0.56292,0.580887 -0.56292,0.363124 z m 1.05834,-0.807527 c 0,-0.07276 0.23812,-0.259733 0.52916,-0.415493 0.29104,-0.15576 0.52917,-0.223671 0.52917,-0.150911 0,0.07276 -0.23813,0.259734 -0.52917,0.415494 -0.29104,0.15576 -0.52916,0.223671 -0.52916,0.15091 z m 23.13546,-0.297799 c -0.49319,-0.395126 -0.48994,-0.40001 0.0817,-0.122981 0.32743,0.158668 0.59532,0.343829 0.59532,0.41147 0,0.202464 -0.13722,0.143997 -0.67704,-0.288489 z m -62.27115,-0.117694 c -0.008,-0.218282 0.10087,-0.575469 0.24194,-0.79375 0.31255,-0.483651 0.31255,-0.06591 0,0.661458 -0.14994,0.348917 -0.23235,0.393981 -0.24194,0.132292 z M 33.629004,92.553975 c -0.09592,-0.155202 -0.117655,-0.338932 -0.0483,-0.408287 0.06935,-0.06936 0.196601,0.05763 0.282773,0.282186 0.178906,0.466225 0.02643,0.548233 -0.234473,0.126101 z m 63.792472,-0.589122 c 0.09936,-0.260937 0.247303,-0.407781 0.328766,-0.326318 0.08146,0.08146 1.69e-4,0.294955 -0.180653,0.474432 -0.261307,0.259361 -0.291697,0.228971 -0.148113,-0.148114 z m 54.112324,-0.01889 c 0.0606,-0.05305 0.4079,-0.238209 0.77171,-0.411469 0.62369,-0.297035 0.63213,-0.291526 0.14786,0.09645 -0.42148,0.337677 -1.28266,0.632693 -0.91957,0.315019 z m 18.23421,-0.168135 c -0.21829,-0.141065 -0.27782,-0.256479 -0.1323,-0.256479 0.14553,0 0.44318,0.115414 0.66146,0.256479 0.21828,0.141066 0.27782,0.25648 0.13229,0.25648 -0.14552,0 -0.44317,-0.115414 -0.66145,-0.25648 z M 20.034731,91.094321 c 0.0127,-0.308226 0.07539,-0.370919 0.15985,-0.159853 0.07643,0.190995 0.06703,0.419201 -0.02088,0.507119 -0.08792,0.08792 -0.150453,-0.06835 -0.138965,-0.347266 z m 12.406677,-0.918662 c -0.160078,-0.299109 -0.251846,-0.66145 -0.20393,-0.805201 0.04792,-0.143751 0.22389,0.100975 0.391051,0.543835 0.347642,0.921007 0.243647,1.066263 -0.187121,0.261366 z m 122.708372,0.368607 c 0.1819,-0.0734 0.47955,-0.0734 0.66146,0 0.1819,0.0734 0.0331,0.133453 -0.33073,0.133453 -0.36381,0 -0.51263,-0.06005 -0.33073,-0.133453 z m 11.12903,-0.0055 c 0.191,-0.07643 0.4192,-0.06703 0.50712,0.02088 0.0879,0.08792 -0.0684,0.150453 -0.34726,0.138965 -0.30823,-0.0127 -0.37092,-0.07539 -0.15986,-0.159851 z m -9.78958,-0.264584 c 0.191,-0.07643 0.4192,-0.06703 0.50712,0.02088 0.0879,0.08792 -0.0684,0.150452 -0.34727,0.138964 -0.30822,-0.0127 -0.37092,-0.07539 -0.15985,-0.15985 z m 8.45013,0.0055 c 0.1819,-0.0734 0.47956,-0.0734 0.66146,0 0.1819,0.0734 0.0331,0.133453 -0.33073,0.133453 -0.3638,0 -0.51263,-0.06005 -0.33073,-0.133453 z m -7.00642,-0.272709 c 0.25743,-0.06708 0.61462,-0.06267 0.79375,0.0098 0.17913,0.07248 -0.0315,0.127362 -0.46806,0.12197 -0.43656,-0.0054 -0.58312,-0.06469 -0.32569,-0.131773 z m 5.55625,0 c 0.25743,-0.06708 0.61462,-0.06267 0.79375,0.0098 0.17913,0.07248 -0.0315,0.127362 -0.46806,0.12197 -0.43656,-0.0054 -0.58312,-0.06469 -0.32569,-0.131773 z M 111.06257,89.66116 c -0.004,-0.218281 0.15536,-0.754063 0.35526,-1.190625 0.46789,-1.021837 0.47475,-0.54655 0.01,0.661458 -0.19614,0.509323 -0.3603,0.747448 -0.36481,0.529167 z M 98.880917,88.86741 c 0.385713,-0.809898 0.507924,-0.959998 0.507924,-0.623835 0,0.141962 -0.185161,0.489228 -0.411472,0.771702 -0.387978,0.48427 -0.393486,0.475827 -0.09645,-0.147867 z M 18.577533,86.599553 c -0.09732,-0.387749 -0.125918,-0.756025 -0.06355,-0.818393 0.06236,-0.06236 0.193017,0.203859 0.290336,0.591608 0.09732,0.38775 0.125917,0.756026 0.06355,0.818394 -0.06236,0.06236 -0.193016,-0.203859 -0.290335,-0.591609 z m 93.813087,-0.907142 c 0,-0.218281 0.10232,-0.635 0.22739,-0.926042 0.14333,-0.333544 0.22739,-0.38245 0.22739,-0.132291 0,0.218281 -0.10233,0.635 -0.22739,0.926041 -0.14333,0.333544 -0.22739,0.38245 -0.22739,0.132292 z M 17.151532,81.940138 c -0.157118,-0.618993 -0.240044,-1.17107 -0.184277,-1.226834 0.05577,-0.05577 0.236103,0.398894 0.400753,1.010357 0.164651,0.611463 0.247574,1.163537 0.184277,1.226833 -0.0633,0.0633 -0.243636,-0.391361 -0.400753,-1.010356 z m 84.131008,0.974148 c -7.9e-4,-0.145521 0.15912,-0.681302 0.35526,-1.190625 0.19614,-0.509323 0.3603,-0.747448 0.36481,-0.529167 0.004,0.218281 -0.15536,0.754063 -0.35526,1.190625 -0.1999,0.436563 -0.36406,0.674688 -0.36481,0.529167 z m 12.68103,-2.513542 c -0.008,-0.218281 0.10087,-0.575468 0.24194,-0.79375 0.31255,-0.48365 0.31255,-0.06591 0,0.661459 -0.14994,0.348916 -0.23235,0.39398 -0.24194,0.132291 z M 16.065981,78.394322 c 0.0127,-0.308227 0.07539,-0.37092 0.15985,-0.159854 0.07643,0.190995 0.06703,0.419201 -0.02088,0.507119 -0.08792,0.08792 -0.150453,-0.06835 -0.138965,-0.347265 z M 102.8734,78.284078 c 0.004,-0.218282 0.1031,-0.694532 0.21961,-1.058334 0.17029,-0.531741 0.21336,-0.557686 0.21961,-0.132291 0.004,0.291041 -0.0945,0.767291 -0.21961,1.058333 -0.13931,0.324197 -0.22438,0.375438 -0.21961,0.132292 z m 12.41309,-2.248959 c 0.0276,-0.501179 0.46851,-1.345102 0.48387,-0.926041 0.008,0.218281 -0.10087,0.575468 -0.24194,0.79375 -0.14106,0.218281 -0.24993,0.277812 -0.24193,0.132291 z M 14.608783,73.63497 c -0.09732,-0.387749 -0.125918,-0.756026 -0.06355,-0.818393 0.06236,-0.06236 0.193017,0.203859 0.290336,0.591608 0.09732,0.38775 0.125918,0.756026 0.06355,0.818393 -0.06236,0.06236 -0.193016,-0.203858 -0.290336,-0.591608 z m 89.563447,-0.0031 c 0.0127,-0.308227 0.0754,-0.37092 0.15985,-0.159854 0.0764,0.190995 0.067,0.419201 -0.0209,0.507119 -0.0879,0.08792 -0.15045,-0.06835 -0.13896,-0.347265 z m 12.4563,-2.226911 c 0,-0.363802 0.0601,-0.51263 0.13346,-0.330729 0.0734,0.181901 0.0734,0.479557 0,0.661458 -0.0734,0.181901 -0.13346,0.03307 -0.13346,-0.330729 z m -90.89346,-0.14252 c -0.09074,-0.236459 -0.157432,-0.569016 -0.148206,-0.739016 0.0092,-0.169997 0.130844,-0.02392 0.270266,0.324636 0.139422,0.348549 0.206116,0.681106 0.148207,0.739015 -0.05791,0.05791 -0.179531,-0.08818 -0.270267,-0.324635 z M 13.285866,69.137054 c -0.09732,-0.38775 -0.125918,-0.756026 -0.06355,-0.818394 0.06237,-0.06236 0.193016,0.203859 0.290335,0.591609 0.09732,0.387749 0.125918,0.756025 0.06355,0.818393 -0.06236,0.06236 -0.193016,-0.203859 -0.290335,-0.591608 z m 92.209284,-0.267732 c 0.0127,-0.308227 0.0754,-0.37092 0.15985,-0.159854 0.0764,0.190995 0.067,0.419201 -0.0209,0.507119 -0.0879,0.08792 -0.15045,-0.06835 -0.13896,-0.347265 z m 0.26458,-1.058334 c 0.0127,-0.308226 0.0754,-0.370919 0.15985,-0.159853 0.0764,0.190995 0.067,0.419201 -0.0209,0.507119 -0.0879,0.08792 -0.15045,-0.06835 -0.13896,-0.347266 z m 12.19172,-1.43316 c 0,-0.363802 0.0601,-0.51263 0.13345,-0.330729 0.0734,0.181901 0.0734,0.479557 0,0.661458 -0.0734,0.181901 -0.13345,0.03307 -0.13345,-0.330729 z M 11.962949,64.639137 c -0.09732,-0.38775 -0.125917,-0.756026 -0.06355,-0.818393 0.06236,-0.06236 0.193016,0.203858 0.290335,0.591608 0.09732,0.38775 0.125918,0.756026 0.06355,0.818393 -0.06236,0.06236 -0.193017,-0.203859 -0.290335,-0.591608 z m 94.590531,-0.0031 c 0.0127,-0.308226 0.0754,-0.370919 0.15985,-0.159853 0.0764,0.190995 0.067,0.419201 -0.0209,0.507119 -0.0879,0.08792 -0.15045,-0.06835 -0.13896,-0.347266 z m 0.29644,-1.036285 c 0,-0.291042 0.0953,-0.826823 0.21184,-1.190625 0.16774,-0.523764 0.21183,-0.551304 0.21183,-0.132292 0,0.291042 -0.0953,0.826823 -0.21183,1.190625 -0.16774,0.523764 -0.21184,0.551305 -0.21184,0.132292 z M 22.680564,61.460988 c 0.0127,-0.308226 0.07539,-0.370919 0.159851,-0.159853 0.07643,0.190995 0.06703,0.419201 -0.02088,0.507119 -0.08792,0.08792 -0.150453,-0.06835 -0.138964,-0.347266 z m -11.90625,-1.058333 c 0.0127,-0.308226 0.07539,-0.370919 0.159851,-0.159853 0.07643,0.190995 0.06703,0.4192 -0.02088,0.507119 -0.08792,0.08792 -0.150453,-0.06835 -0.138964,-0.347266 z m 108.479166,0 c 0.0127,-0.308226 0.0754,-0.370919 0.15985,-0.159853 0.0764,0.190995 0.067,0.4192 -0.0209,0.507119 -0.0879,0.08792 -0.15045,-0.06835 -0.13896,-0.347266 z M 10.509731,59.344322 c 0.0127,-0.308227 0.07539,-0.37092 0.15985,-0.159853 0.07643,0.190994 0.06703,0.4192 -0.02088,0.507118 -0.08792,0.08792 -0.150453,-0.06835 -0.138965,-0.347265 z m 11.1125,-1.322917 c 0.0127,-0.308226 0.07539,-0.370919 0.15985,-0.159853 0.07643,0.190995 0.06703,0.4192 -0.02088,0.507119 -0.08792,0.08792 -0.150453,-0.06835 -0.138965,-0.347266 z M 108.1827,57.646578 c 0,-0.363802 0.0909,-1.018646 0.20197,-1.455208 0.18017,-0.708028 0.20198,-0.722316 0.20198,-0.132292 0,0.363802 -0.0909,1.018646 -0.20198,1.455208 -0.18016,0.708028 -0.20197,0.722315 -0.20197,0.132292 z M 21.357647,56.963072 c 0.0127,-0.308226 0.07539,-0.370919 0.159851,-0.159853 0.07643,0.190994 0.06703,0.4192 -0.02088,0.507118 -0.08792,0.08792 -0.150452,-0.06835 -0.138964,-0.347265 z M 9.4513967,55.640155 c 0.012695,-0.308226 0.075391,-0.370919 0.1598525,-0.159853 0.07643,0.190995 0.067031,0.4192 -0.020889,0.507119 -0.087919,0.08792 -0.1504529,-0.06835 -0.1389635,-0.347266 z M 9.1868133,54.581822 c 0.012695,-0.308226 0.075391,-0.370919 0.1598526,-0.159853 0.07643,0.190994 0.067031,0.4192 -0.020889,0.507119 -0.087919,0.08792 -0.1504529,-0.06835 -0.1389636,-0.347266 z M 20.146133,52.884078 c -0.100457,-0.457375 -0.127494,-0.88674 -0.06009,-0.954148 0.06741,-0.06741 0.198628,0.257781 0.2916,0.722638 0.22057,1.102849 0.0068,1.316603 -0.231511,0.23151 z M 120.60709,53.01637 c 0.005,-0.436563 0.0647,-0.583126 0.13177,-0.325694 0.0671,0.257431 0.0627,0.614619 -0.01,0.79375 -0.0725,0.17913 -0.12736,-0.03149 -0.12197,-0.468056 z m 0.27438,-1.719792 c 0,-0.509323 0.0545,-0.717682 0.12101,-0.463021 0.0665,0.254662 0.0665,0.67138 0,0.926042 -0.0666,0.254661 -0.12101,0.0463 -0.12101,-0.463021 z m -11.1223,-1.719792 c 0.005,-0.436562 0.0647,-0.583125 0.13177,-0.325694 0.0671,0.257432 0.0627,0.614619 -0.01,0.79375 -0.0725,0.179131 -0.12736,-0.03149 -0.12197,-0.468056 z m 11.37708,-0.264583 c 0.005,-0.436562 0.0647,-0.583126 0.13178,-0.325694 0.0671,0.257432 0.0627,0.614619 -0.01,0.79375 -0.0725,0.179131 -0.12736,-0.03149 -0.12197,-0.468056 z M 18.860433,47.801342 c -0.08925,-0.333192 -0.150863,-0.903462 -0.136906,-1.267264 0.01495,-0.389776 0.119944,-0.179287 0.255617,0.512474 0.243041,1.2392 0.15722,1.784861 -0.118711,0.75479 z M 7.33473,46.644322 c 0.012695,-0.308226 0.075391,-0.370919 0.1598526,-0.159853 0.07643,0.190994 0.067031,0.419198 -0.020889,0.507119 -0.087919,0.08792 -0.1504529,-0.06835 -0.1389636,-0.347266 z m 103.1875,-1.852083 c 0.0127,-0.308227 0.0754,-0.37092 0.15985,-0.159854 0.0764,0.190995 0.067,0.419198 -0.0209,0.507119 -0.0879,0.08792 -0.15045,-0.06835 -0.13896,-0.347265 z m 0.26458,-1.5875 c 0.0127,-0.308227 0.0754,-0.37092 0.15985,-0.159854 0.0764,0.190995 0.067,0.419198 -0.0209,0.507119 -0.0879,0.08792 -0.15046,-0.06835 -0.13897,-0.347265 z m 0.29528,-1.565453 c 0.005,-0.436562 0.0647,-0.583125 0.13177,-0.325694 0.0671,0.257432 0.0627,0.614619 -0.01,0.79375 -0.0725,0.179131 -0.12736,-0.03149 -0.12197,-0.468056 z M 18.182647,40.823489 c 0.0127,-0.308227 0.07539,-0.37092 0.159851,-0.159854 0.07643,0.190995 0.06703,0.419198 -0.02088,0.507119 -0.08792,0.08792 -0.150452,-0.06835 -0.138964,-0.347265 z m 0.528011,-2.226911 c -0.0011,-0.381296 0.745437,-1.895967 0.76464,-1.551731 0.0052,0.09243 -0.164557,0.568682 -0.377142,1.058334 -0.212585,0.489651 -0.386958,0.711678 -0.387498,0.493397 z m 1.303184,-2.481146 c 0,-0.05494 0.208359,-0.2633 0.463021,-0.463021 0.419645,-0.329107 0.429003,-0.319749 0.0999,0.0999 -0.345644,0.44073 -0.562917,0.580888 -0.562917,0.363125 z m 90.818048,-1.024583 c -0.28445,-0.777425 -0.27732,-0.810638 0.0743,-0.346305 0.33649,0.44436 0.5352,1.206201 0.31463,1.206201 -0.0409,0 -0.21587,-0.386953 -0.38892,-0.859896 z M 22.453221,33.693066 c 0.395771,-0.416333 0.767035,-0.703749 0.825026,-0.638707 0.05799,0.06504 -0.265819,0.405678 -0.719585,0.756968 l -0.825029,0.638707 z m 86.580459,-0.983467 -1.04588,-1.124479 1.12448,1.045885 c 1.04575,0.972661 1.24606,1.203073 1.04588,1.203073 -0.0432,0 -0.54924,-0.506015 -1.12448,-1.124479 z m -98.535289,-0.43816 c 0.491733,-0.641171 1.473869,-1.772264 2.182519,-2.513542 0.862015,-0.901703 0.700659,-0.647221 -0.487522,0.76889 -2.110612,2.515494 -2.9442875,3.373591 -1.694997,1.744652 z m 29.028471,0.846748 c 0.327422,-0.06307 0.863203,-0.06307 1.190625,0 0.327422,0.06306 0.05953,0.114663 -0.595312,0.114663 -0.654844,0 -0.922735,-0.0516 -0.595313,-0.114663 z m 3.178085,-5.29e-4 c 0.329118,-0.06329 0.805368,-0.06088 1.058334,0.0053 0.252965,0.06622 -0.01633,0.118004 -0.598398,0.115067 -0.582083,-0.0029 -0.789054,-0.05712 -0.459936,-0.120407 z m 38.89375,0 c 0.329118,-0.06329 0.805368,-0.06088 1.058333,0.0053 0.252966,0.06622 -0.01633,0.118004 -0.598397,0.115067 -0.582084,-0.0029 -0.789054,-0.05712 -0.459936,-0.120407 z M 24.474923,32.262281 c 0.343546,-0.299677 0.750343,-0.544869 0.903994,-0.544869 0.325363,0 0.309822,0.0132 -0.734867,0.624948 l -0.79375,0.464791 z m 11.413919,-0.147994 c -0.363803,-0.207968 -0.542396,-0.378124 -0.396875,-0.378124 0.14552,0 0.562239,0.170156 0.926041,0.378124 0.363802,0.207967 0.542396,0.378124 0.396875,0.378124 -0.145521,0 -0.562239,-0.170157 -0.926041,-0.378124 z m 41.274999,0.132291 c -0.218281,-0.141065 -0.277813,-0.256479 -0.132292,-0.256479 0.145521,0 0.443177,0.115414 0.661459,0.256479 0.218281,0.141066 0.277812,0.256479 0.132291,0.256479 -0.145521,0 -0.443177,-0.115413 -0.661458,-0.256479 z M 47.195368,31.949163 c 0.179478,-0.180822 0.39297,-0.262115 0.474433,-0.180652 0.08146,0.08146 -0.06538,0.229407 -0.326319,0.328766 -0.377084,0.143584 -0.407474,0.113194 -0.148114,-0.148114 z m 40.216666,0 c 0.179478,-0.180822 0.39297,-0.262115 0.474433,-0.180652 0.08146,0.08146 -0.06538,0.229407 -0.326319,0.328766 -0.377084,0.143584 -0.407474,0.113194 -0.148114,-0.148114 z M 48.588841,31.352932 c 0,-0.05494 0.20836,-0.2633 0.463021,-0.463021 0.419645,-0.329107 0.429004,-0.319749 0.0999,0.0999 -0.345643,0.44073 -0.562917,0.580888 -0.562917,0.363125 z m 72.252139,-0.0769 c -0.0115,-0.17 -0.0894,-0.527187 -0.17316,-0.79375 -0.14474,-0.460698 -0.13727,-0.461274 0.15102,-0.01167 0.16681,0.260144 0.24473,0.617331 0.17316,0.79375 -0.0939,0.231508 -0.13594,0.234757 -0.15102,0.01167 z M 27.157592,30.79137 c 0.363802,-0.207968 0.780521,-0.378124 0.926041,-0.378124 0.145521,0 -0.03307,0.170156 -0.396875,0.378124 -0.363802,0.207968 -0.78052,0.378124 -0.926041,0.378124 -0.145521,0 0.03307,-0.170156 0.396875,-0.378124 z m 6.580833,-0.06615 c -0.329108,-0.419645 -0.319749,-0.429003 0.0999,-0.0999 0.254661,0.199721 0.463021,0.40808 0.463021,0.463021 0,0.217763 -0.217274,0.0776 -0.562917,-0.363125 z m 72.529585,0.06615 c -0.3638,-0.207968 -0.53539,-0.382344 -0.3813,-0.387498 0.15409,-0.0052 0.51127,0.165431 0.79375,0.379084 0.65325,0.494094 0.4446,0.498351 -0.41245,0.0084 z M 74.387589,30.662108 c -0.09269,-0.149982 0.01352,-0.194337 0.248968,-0.103984 0.458369,0.175892 0.542234,0.365538 0.16165,0.365538 -0.136933,0 -0.321712,-0.1177 -0.410618,-0.261554 z M 49.647175,30.559182 c 0,-0.05494 0.208359,-0.2633 0.463021,-0.463021 0.419645,-0.329107 0.429003,-0.319749 0.0999,0.0999 -0.345644,0.440729 -0.562917,0.580887 -0.562917,0.363124 z M 32.429232,29.666891 31.7878,28.939287 l 0.727604,0.641432 c 0.680056,0.599516 0.84894,0.813776 0.641432,0.813776 -0.04739,0 -0.374814,-0.327422 -0.727604,-0.727604 z m 58.757525,-0.198438 c 0.493655,-0.509323 0.957086,-0.926041 1.029846,-0.926041 0.07276,0 -0.271608,0.416718 -0.765262,0.926041 -0.493655,0.509323 -0.957086,0.926042 -1.029846,0.926042 -0.07276,0 0.271608,-0.416719 0.765262,-0.926042 z m -18.149096,0.06615 -0.504028,-0.595312 0.595312,0.504028 c 0.327422,0.277215 0.595313,0.545105 0.595313,0.595313 0,0.211733 -0.212934,0.05542 -0.686597,-0.504029 z M 51.366966,28.806995 c 0.26339,-0.291042 0.538422,-0.529167 0.611183,-0.529167 0.07276,0 -0.08321,0.238125 -0.346599,0.529167 -0.26339,0.291042 -0.538422,0.529167 -0.611183,0.529167 -0.07276,0 0.08321,-0.238125 0.346599,-0.529167 z m 51.147264,0.348427 c 0.191,-0.07643 0.4192,-0.06703 0.50712,0.02088 0.0879,0.08792 -0.0683,0.150452 -0.34727,0.138964 -0.30822,-0.0127 -0.37091,-0.07539 -0.15985,-0.15985 z M 14.193009,28.442516 c 0,-0.05494 0.208359,-0.2633 0.46302,-0.463021 0.419645,-0.329107 0.429004,-0.319749 0.0999,0.0999 -0.345643,0.44073 -0.562916,0.580887 -0.562916,0.363125 z m 57.257152,-0.76 -0.504028,-0.595313 0.595312,0.504029 c 0.327422,0.277215 0.595313,0.545105 0.595313,0.595312 0,0.211733 -0.212934,0.05542 -0.686597,-0.504028 z m 27.09532,0.414573 c 0.190995,-0.07643 0.419201,-0.06703 0.507119,0.02088 0.08792,0.08792 -0.06835,0.150453 -0.347265,0.138965 -0.308227,-0.0127 -0.37092,-0.07539 -0.159854,-0.159851 z m -1.604036,-0.259072 c 0.181901,-0.0734 0.479557,-0.0734 0.661458,0 0.181901,0.0734 0.03307,0.133453 -0.330729,0.133453 -0.363802,0 -0.51263,-0.06005 -0.330729,-0.133453 z M 15.251342,27.656108 c 0,-0.06114 0.312317,-0.315807 0.694034,-0.56592 0.381719,-0.250111 0.613214,-0.323977 0.514432,-0.164142 -0.18877,0.305432 -1.208466,0.921456 -1.208466,0.730062 z m 80.648306,-0.08819 c 0.190995,-0.07643 0.4192,-0.06703 0.507119,0.02088 0.08792,0.08792 -0.06835,0.150452 -0.347266,0.138964 -0.308226,-0.0127 -0.370919,-0.07539 -0.159853,-0.15985 z m 22.470342,-1.020593 c -0.39869,-0.369692 -0.7249,-0.749154 -0.7249,-0.843251 0,-0.0941 0.35719,0.171122 0.79375,0.589375 0.72937,0.698778 0.90727,0.926042 0.7249,0.926042 -0.0379,0 -0.39505,-0.302474 -0.79375,-0.672166 z M 17.897175,26.02887 c 0.363802,-0.207968 0.780521,-0.378124 0.926042,-0.378124 0.145521,0 -0.03307,0.170156 -0.396875,0.378124 -0.363802,0.207968 -0.780521,0.378124 -0.926042,0.378124 -0.145521,0 0.03307,-0.170156 0.396875,-0.378124 z m 98.482575,-1.389062 c -0.63285,-0.618464 -0.6434,-0.648822 -0.0703,-0.202401 1.1292,0.879647 1.18313,0.930005 0.99588,0.930005 -0.0996,0 -0.51607,-0.327422 -0.92556,-0.727604 z m -62.742937,0.0441 c 0.0127,-0.308227 0.07539,-0.37092 0.159851,-0.159854 0.07643,0.190995 0.06703,0.419198 -0.02087,0.507119 -0.08792,0.08792 -0.150453,-0.06835 -0.138965,-0.347265 z M 24.64405,23.515328 c 0.727363,-0.312557 1.145109,-0.312557 0.661458,0 -0.218281,0.141066 -0.575468,0.249936 -0.79375,0.241935 -0.261688,-0.0096 -0.216625,-0.092 0.132292,-0.241935 z m 29.257347,-0.154339 c 0.0127,-0.308226 0.07539,-0.370919 0.15985,-0.159853 0.07643,0.190995 0.06703,0.419198 -0.02088,0.507119 -0.08792,0.08792 -0.150453,-0.06835 -0.138965,-0.347266 z m 60.685413,0.0075 c -0.49319,-0.395126 -0.48995,-0.40001 0.0817,-0.122981 0.32742,0.158668 0.59531,0.343829 0.59531,0.41147 0,0.202464 -0.13722,0.143997 -0.67703,-0.288489 z M 69.577745,21.001787 c 0.0011,-1.018646 0.049,-1.402943 0.106272,-0.853996 0.05728,0.54895 0.05631,1.382387 -0.0021,1.852084 -0.05845,0.469698 -0.105312,0.02056 -0.104138,-0.998088 z m -15.360592,0.396875 c 0,-0.654844 0.0516,-0.922735 0.114663,-0.595313 0.06307,0.327422 0.06307,0.863203 0,1.190625 -0.06306,0.327422 -0.114663,0.05953 -0.114663,-0.595312 z m 58.136267,0.79375 c -0.21828,-0.141065 -0.27781,-0.256479 -0.13229,-0.256479 0.14552,0 0.44318,0.115414 0.66146,0.256479 0.21828,0.141065 0.27781,0.256479 0.13229,0.256479 -0.14552,0 -0.44318,-0.115414 -0.66146,-0.256479 z m -4.23333,-1.322917 c -0.53174,-0.170294 -0.55769,-0.21336 -0.13229,-0.219612 0.29104,-0.0043 0.76729,0.09455 1.05833,0.219612 0.67422,0.289722 -0.0214,0.289722 -0.92604,0 z m -1.63711,-0.445323 c 0.191,-0.07643 0.4192,-0.06703 0.50712,0.02088 0.0879,0.08792 -0.0683,0.150453 -0.34727,0.138964 -0.30822,-0.0127 -0.37091,-0.07539 -0.15985,-0.15985 z m -77.43153,-0.61301 c 0,-0.363802 0.06006,-0.51263 0.133453,-0.330729 0.0734,0.181901 0.0734,0.479557 0,0.661458 -0.0734,0.181901 -0.133453,0.03307 -0.133453,-0.330729 z m 24.870833,-0.529167 c 0,-0.363802 0.06005,-0.51263 0.133453,-0.330729 0.0734,0.181901 0.0734,0.479557 0,0.661458 -0.0734,0.181901 -0.133453,0.03307 -0.133453,-0.330729 z m 43.812912,0.335436 c 0.618463,-0.0557 1.630495,-0.0557 2.248958,0 0.618467,0.05571 0.112447,0.101283 -1.124479,0.101283 -1.236927,0 -1.742943,-0.04558 -1.124479,-0.101283 z m -2.243923,-0.254206 c 0.257431,-0.06708 0.614619,-0.06267 0.793749,0.0098 0.179131,0.07248 -0.03149,0.127363 -0.468055,0.121971 -0.436563,-0.0054 -0.583126,-0.06469 -0.325694,-0.131773 z M 29.295147,18.598489 c 0.0127,-0.308226 0.07539,-0.370919 0.159851,-0.159853 0.07643,0.190995 0.06703,0.419198 -0.02088,0.507119 -0.08792,0.08792 -0.150452,-0.06835 -0.138964,-0.347266 z m 24.341666,-0.529167 c 0.0127,-0.308226 0.07539,-0.370919 0.159851,-0.159853 0.07643,0.190995 0.06703,0.419198 -0.02087,0.507119 -0.08792,0.08792 -0.150453,-0.06835 -0.138965,-0.347266 z m -2.030401,-3.880556 -0.504029,-0.595312 0.595312,0.504028 c 0.327422,0.277215 0.595313,0.545105 0.595313,0.595313 0,0.211732 -0.212934,0.05542 -0.686596,-0.504029 z m 20.133471,0.06615 c 0.26339,-0.291042 0.538421,-0.529167 0.611182,-0.529167 0.07276,0 -0.08321,0.238125 -0.346599,0.529167 -0.26339,0.291042 -0.538422,0.529167 -0.611182,0.529167 -0.07276,0 0.08321,-0.238125 0.346599,-0.529167 z M 32.316967,13.196579 c 0.568388,-0.582084 1.092967,-1.058334 1.165727,-1.058334 0.07276,0 -0.332756,0.47625 -0.901144,1.058334 -0.568389,0.582083 -1.092967,1.058333 -1.165728,1.058333 -0.07276,0 0.332756,-0.47625 0.901145,-1.058333 z m 57.28229,-1.611141 c -0.569851,-0.46611 -0.581051,-0.501742 -0.08088,-0.257277 0.319318,0.156069 0.653764,0.402185 0.743217,0.546924 0.238808,0.386397 0.07842,0.31626 -0.662337,-0.289647 z m -55.562499,0.195671 c 0,-0.06114 0.312317,-0.315808 0.694034,-0.56592 0.38172,-0.250112 0.613214,-0.323977 0.514432,-0.164144 -0.18877,0.305434 -1.208466,0.921458 -1.208466,0.730064 z m 14.552083,-0.17203 c -0.238466,-0.15411 -0.2711,-0.258098 -0.08176,-0.260532 0.173312,-0.0022 0.388699,0.115011 0.478636,0.260532 0.203015,0.328486 0.111422,0.328486 -0.396876,0 z m -3.571875,-1.5875 C 44.683422,9.8782499 44.634517,9.7941881 44.884675,9.7941881 c 0.218281,0 0.635,0.1023257 0.926041,0.2273909 0.333545,0.143328 0.38245,0.22739 0.132292,0.22739 -0.218281,0 -0.635,-0.102326 -0.926042,-0.22739 z m 32.411458,0 c 0.218282,-0.1410645 0.515938,-0.2564806 0.661459,-0.2564806 0.14552,0 0.08599,0.1154161 -0.132292,0.2564806 -0.218281,0.141064 -0.515938,0.25648 -0.661458,0.25648 -0.145521,0 -0.08599,-0.115416 0.132291,-0.25648 z M 86.027382,9.8799768 C 85.36576,9.5613 85.343739,9.5245713 85.895091,9.659332 c 0.749697,0.1832401 1.592395,0.612755 1.190625,0.60685 -0.145521,-0.0021 -0.621771,-0.17593 -1.058334,-0.3862052 z"
         id="path141"
         inkscape:connector-curvature="0" />
      <path
         style="fill:#999999;fill-opacity:1;stroke-width:0.26458332"
         d="m 109.31072,184.7668 c -0.29105,-0.0601 -2.01745,-0.22676 -3.83646,-0.37027 -4.6002,-0.36291 -9.673423,-1.89711 -13.493753,-4.08064 -0.654843,-0.37428 -1.607343,-0.90954 -2.116666,-1.18947 -0.509323,-0.27992 -1.152853,-0.75975 -1.430071,-1.06627 -0.277214,-0.30653 -0.596992,-0.55732 -0.710615,-0.55732 -0.267443,0 -2.310437,-1.85275 -4.084529,-3.70417 -2.020562,-2.10864 -3.16167,-3.56938 -5.063855,-6.48229 -0.815014,-1.24808 -3.165448,-5.78716 -3.973192,-7.67292 -1.270503,-2.9661 -1.988431,-4.80896 -2.196518,-5.63829 -0.120859,-0.48168 -0.456486,-1.49371 -0.745837,-2.24896 -0.289351,-0.75524 -0.845026,-2.56379 -1.234836,-4.019 -0.389811,-1.45521 -0.987605,-3.59833 -1.328431,-4.7625 -0.340828,-1.16417 -0.818113,-2.89057 -1.06063,-3.83646 -1.370385,-5.34486 -2.452563,-9.12213 -3.107899,-10.84791 -0.303924,-0.80037 -0.572026,-1.48475 -0.595786,-1.52086 -0.02376,-0.0361 -2.414749,-0.11255 -5.313312,-0.16987 -4.451294,-0.088 -5.742861,-0.21039 -8.312822,-0.78764 -3.043587,-0.68362 -4.857647,-1.23275 -5.198533,-1.57364 -0.09973,-0.0997 -0.337466,-0.18133 -0.528302,-0.18133 -0.490818,0 -4.34482,-1.83177 -4.789413,-2.27636 -0.203205,-0.20321 -0.479748,-0.36947 -0.614537,-0.36947 -0.330743,0 -2.970498,-1.88199 -3.236008,-2.30708 -0.116371,-0.18631 -0.324731,-0.33875 -0.463021,-0.33875 -0.704175,0 -7.659769,-7.86914 -7.659769,-8.6658 0,-0.13625 -0.297511,-0.59367 -0.661136,-1.01649 -0.363624,-0.42281 -0.661281,-0.90097 -0.661458,-1.06256 -1.77e-4,-0.1616 -0.268213,-0.69738 -0.595635,-1.19063 -0.327422,-0.49325 -0.938514,-1.67072 -1.357985,-2.61661 -0.41947,-0.94588 -1.044548,-2.33737 -1.389062,-3.09219 -0.344514,-0.75483 -0.626391,-1.525788 -0.626391,-1.713245 0,-0.187458 -0.288208,-1.117688 -0.640461,-2.067177 -0.352253,-0.949489 -1.258429,-3.690874 -2.013727,-6.091967 -0.755301,-2.401094 -1.646211,-5.139531 -1.979803,-6.085417 -0.333592,-0.945885 -0.678318,-2.13651 -0.766059,-2.645833 -0.08774,-0.509323 -0.381357,-1.521354 -0.652484,-2.248958 -0.271126,-0.727605 -0.822571,-2.454011 -1.225433,-3.836459 -0.402863,-1.382448 -1.019884,-3.466041 -1.371156,-4.630208 -0.351274,-1.164167 -0.920551,-3.069167 -1.26506,-4.233333 -0.344509,-1.164167 -0.876866,-2.950104 -1.183013,-3.96875 C 11.520913,62.581057 11.037635,60.854651 10.75311,59.763245 10.468584,58.671838 9.874032,56.469182 9.4318823,54.868453 8.0388006,49.825034 7.0492587,44.571055 7.0492587,42.217896 c 0,-4.051237 1.3538631,-7.265297 4.7017593,-11.161943 2.907832,-3.384446 6.667153,-5.57894 12.236929,-7.143271 0.657788,-0.184745 2.023269,-0.686281 3.034398,-1.114525 l 1.83842,-0.778621 0.426421,-2.393371 c 0.476562,-2.67481 1.280387,-4.316365 2.997266,-6.120961 3.491,-3.6693602 8.465788,-4.9091072 13.361903,-3.329866 1.1645,0.375609 2.380694,0.91139 2.702655,1.190625 0.321961,0.279234 0.701513,0.507699 0.843452,0.507699 0.37851,0 3.100546,2.945471 3.100546,3.355049 0,0.192016 0.09701,0.349118 0.21558,0.349118 0.40654,0 1.058868,1.769028 1.399198,3.794442 0.602573,3.586115 -0.250552,6.742115 -2.572522,9.516631 -0.739309,0.883396 -3.15372,2.82851 -3.510947,2.82851 -0.138009,0 -0.647528,0.198739 -1.132263,0.441642 -0.484735,0.242904 -1.105733,0.551582 -1.379998,0.685956 -0.274262,0.134374 -1.901682,0.244316 -3.616491,0.244316 -2.824353,0 -3.275516,-0.06882 -4.793007,-0.731112 -0.921345,-0.402111 -2.315448,-1.216808 -3.098003,-1.810435 -0.782558,-0.59363 -1.57421,-1.190197 -1.759228,-1.325708 -0.541129,-0.396328 -7.266101,2.461498 -8.069061,3.429005 -0.177679,0.21409 -0.468194,0.389252 -0.645592,0.389252 -0.177395,0 -1.026019,0.759976 -1.885831,1.688833 -2.455113,2.652271 -2.51265,2.748743 -3.00478,5.038198 -0.424119,1.973043 0.01328,6.391373 0.946235,9.558497 0.345149,1.171678 0.629298,2.362303 0.631441,2.645833 0.0047,0.616963 0.87053,3.462509 1.133671,3.725651 0.101941,0.101941 0.185348,0.460655 0.185348,0.797139 0,0.336486 0.276897,1.477502 0.615326,2.535592 0.338429,1.05809 0.943393,2.995361 1.344361,4.305049 0.400971,1.309687 1.006425,3.214687 1.345454,4.233333 0.339029,1.018646 1.098317,3.340364 1.687309,5.159375 0.588991,1.81901 1.502603,4.497916 2.030248,5.953125 0.527645,1.455208 1.06526,3.00302 1.194697,3.439583 0.547254,1.845768 1.818513,5.350544 2.207313,6.085416 0.230971,0.436563 0.420682,0.940869 0.421579,1.12068 0.0027,0.534705 3.235788,6.375114 3.700407,6.684529 0.109257,0.07276 0.282252,0.400182 0.384434,0.727604 0.10218,0.327422 0.2911,0.595312 0.419825,0.595312 0.128723,0 0.582904,0.506016 1.009288,1.124479 0.955818,1.386396 3.697367,4.205194 5.468302,5.622394 0.727374,0.58209 1.362186,1.14763 1.410692,1.25677 0.04851,0.10914 0.24229,0.19844 0.430626,0.19844 0.188335,0 0.50415,0.19486 0.701807,0.43303 0.197659,0.23816 0.837316,0.65787 1.421461,0.9327 0.584144,0.27482 1.359736,0.67166 1.723538,0.88187 1.447662,0.83648 5.12114,2.14506 7.672916,2.73328 3.34845,0.77186 12.04087,0.57825 16.271875,-0.36243 1.018646,-0.22648 2.387865,-0.50934 3.042708,-0.62859 1.707994,-0.31103 5.542325,-1.47752 6.905252,-2.10073 0.640496,-0.29288 1.581259,-0.71629 2.090581,-0.94091 3.064725,-1.35163 7.128399,-4.90056 9.165921,-8.004874 0.561295,-0.855175 1.169779,-1.790163 1.352185,-2.077749 0.318825,-0.502676 2.498124,-4.942758 3.503242,-7.137471 0.266576,-0.582084 0.808649,-1.891771 1.204605,-2.910417 0.39595,-1.018646 0.94039,-2.35317 1.20985,-2.965606 0.26947,-0.612439 0.59935,-1.564939 0.73307,-2.116667 0.13372,-0.55173 0.48477,-1.717518 0.78012,-2.590643 0.73121,-2.161667 1.72875,-5.55275 2.56843,-8.73125 0.38442,-1.455209 0.93671,-3.513045 1.2273,-4.572971 0.29058,-1.059924 0.62119,-2.548205 0.73469,-3.307292 0.11349,-0.759084 0.44822,-2.392185 0.74384,-3.629112 0.72793,-3.04573 1.65892,-7.721272 1.92414,-9.663202 0.11969,-0.876374 0.48062,-2.900437 0.80207,-4.497917 0.78552,-3.903729 0.85378,-8.42156 0.14365,-9.506855 -0.70521,-1.077777 -2.5636,-3.054942 -2.87143,-3.054942 -0.14236,0 -0.61258,-0.297657 -1.04493,-0.661459 -0.43236,-0.363802 -0.94578,-0.661458 -1.14094,-0.661458 -0.19516,0 -0.94746,-0.297656 -1.67177,-0.661458 -0.72431,-0.363802 -1.49739,-0.661459 -1.71796,-0.661459 -0.22056,0 -1.15577,-0.236164 -2.07824,-0.524811 -0.92247,-0.288647 -2.880458,-0.722046 -4.351084,-0.96311 L 93.37965,27.145359 91.5556,28.988568 c -2.831727,2.861471 -5.690431,4.059317 -9.629259,4.034824 -2.462956,-0.01532 -5.352309,-0.882107 -6.786092,-2.035791 -0.405407,-0.326208 -0.827262,-0.593106 -0.93745,-0.593106 -0.219811,0 -1.427099,-1.268074 -2.393058,-2.513542 -0.338588,-0.436562 -0.909537,-1.43955 -1.268778,-2.228863 -0.582337,-1.279496 -0.651827,-1.78158 -0.640837,-4.630208 0.01172,-3.040618 0.05187,-3.271848 0.830297,-4.782595 0.89077,-1.728785 2.668863,-3.749463 4.243504,-4.822442 1.738035,-1.184319 4.99051,-2.177916 7.14851,-2.1837961 3.001727,-0.00818 6.643417,1.4199141 9.027646,3.5402021 1.073285,0.954468 2.594489,3.40488 3.090426,4.978175 0.261507,0.829593 0.663657,1.584298 0.89367,1.677127 0.23001,0.09283 2.442266,0.267716 4.916121,0.388641 2.91776,0.142624 5.31483,0.41256 6.82327,0.768374 1.27894,0.301681 2.50696,0.54851 2.72893,0.54851 0.22197,0 1.05433,0.297657 1.84968,0.661459 0.79535,0.363802 1.52546,0.661458 1.62247,0.661458 0.35083,0 3.594,2.335382 4.43815,3.195878 0.14552,0.148339 0.53892,0.529061 0.87423,0.846048 1.14318,1.080733 2.06469,2.966479 2.67942,5.483074 0.93549,3.829738 0.84875,10.541137 -0.2582,19.976041 -0.17073,1.455209 -0.5468,3.836459 -0.8357,5.291667 -0.28891,1.455208 -0.6181,3.181614 -0.73154,3.836458 -0.24367,1.406642 -1.15355,5.101429 -1.98728,8.069792 -0.32698,1.164166 -0.80065,2.890573 -1.05259,3.836458 -0.79425,2.981923 -1.40827,5.107361 -1.94912,6.746875 -0.28803,0.873125 -1.14527,3.552031 -1.90498,5.953125 -0.7597,2.401094 -1.59682,4.960937 -1.86026,5.688541 -0.26345,0.727605 -0.67685,2.037292 -0.91868,2.910417 -0.24183,0.873125 -0.56389,1.738506 -0.71568,1.923066 -0.15179,0.184563 -0.36733,0.779875 -0.47897,1.322916 -0.73272,3.564119 -4.66812,12.013749 -6.17964,13.268199 -0.23304,0.19341 -0.42372,0.46688 -0.42372,0.6077 0,0.47745 -5.979408,6.02916 -6.493628,6.02916 -0.111813,0 -0.593545,0.29766 -1.070515,0.66146 -0.47697,0.3638 -1.043832,0.66146 -1.259695,0.66146 -0.215865,0 -0.432167,0.0893 -0.480676,0.19843 -0.209608,0.47163 -8.046257,3.76556 -8.966507,3.76885 -0.482158,0.002 -3.737692,1.05325 -4.002881,1.29292 -0.09965,0.0901 -0.0081,0.87813 0.203552,1.75126 0.211608,0.87312 0.490193,2.30187 0.619077,3.175 0.128884,0.87312 0.470477,2.59953 0.759098,3.83645 0.288618,1.23693 0.643765,2.84427 0.789212,3.57188 0.361561,1.80874 1.597335,6.64409 2.02859,7.9375 0.194079,0.58208 0.672523,2.07036 1.063209,3.30729 1.519129,4.80964 4.469453,10.86245 6.871711,14.09782 1.220748,1.64411 5.667266,5.97595 7.029037,6.84776 3.205016,2.05185 6.746276,3.47221 9.921876,3.97954 4.5987,0.73468 12.83768,0.32362 16.36698,-0.81658 0.95443,-0.30834 1.9367,-0.56062 2.18281,-0.56062 1.05139,0 8.05025,-3.53706 9.49604,-4.79909 0.29104,-0.25405 1.32881,-1.12768 2.30614,-1.94141 0.97734,-0.81374 2.4376,-2.27915 3.24502,-3.25649 0.80743,-0.97733 1.62523,-1.95557 1.81733,-2.17385 0.1921,-0.21828 0.81436,-1.17078 1.38279,-2.11666 0.56843,-0.94589 1.10285,-1.77933 1.1876,-1.85209 0.15217,-0.13064 1.48622,-2.89071 2.60263,-5.38471 1.06045,-2.36896 3.23018,-9.82021 3.70955,-12.73924 0.16728,-1.01865 0.47604,-2.62599 0.68614,-3.57188 0.21009,-0.94589 0.38446,-2.28829 0.3875,-2.98311 0.005,-1.06849 -0.0863,-1.29866 -0.5898,-1.49249 -4.42004,-1.70148 -7.85848,-4.31869 -10.28366,-7.82752 -6.2005,-8.97109 -3.76425,-21.174103 5.45501,-27.323808 2.11042,-1.40775 5.2741,-2.848364 6.74688,-3.072257 0.65484,-0.09955 1.78593,-0.288983 2.51354,-0.420968 4.61341,-0.836845 10.7399,0.511818 15.1551,3.336184 1.18246,0.756415 3.94316,3.352268 5.30436,4.987623 0.69844,0.839121 2.06304,3.485356 2.79889,5.427596 0.99866,2.63596 1.25519,7.21427 0.56768,10.13166 -0.62024,2.63194 -2.75907,6.97142 -4.09403,8.30638 -0.59339,0.59338 -1.07888,1.21194 -1.07888,1.37458 0,0.16264 -0.11985,0.29571 -0.26633,0.29571 -0.14648,0 -0.52514,0.29766 -0.84146,0.66146 -0.31633,0.3638 -0.73226,0.66146 -0.9243,0.66146 -0.19203,0 -0.34916,0.11804 -0.34916,0.26232 0,0.219 -1.13624,0.96971 -3.175,2.09772 -0.89506,0.49523 -3.36799,1.41622 -4.23333,1.57662 -1.06954,0.19825 -1.04528,0.12588 -1.73983,5.19147 -0.69153,5.04368 -1.89441,9.9748 -3.48524,14.28749 -0.21471,0.58209 -0.55381,1.50118 -0.75356,2.04243 -0.84362,2.28589 -3.71089,7.8416 -5.24239,10.15781 -0.27797,0.42039 -0.81182,1.2406 -1.18634,1.82268 -0.37453,0.58208 -0.88619,1.29646 -1.13704,1.5875 -0.25086,0.29104 -1.18832,1.42214 -2.08327,2.51354 -1.7543,2.13943 -3.63804,4.07922 -5.55178,5.717 -2.51947,2.15617 -5.498,4.33436 -6.51756,4.76629 -0.46299,0.19613 -0.92259,0.48733 -1.02134,0.6471 -0.0987,0.15977 -0.67243,0.51313 -1.27486,0.78525 -0.60243,0.27212 -1.39299,0.67082 -1.75679,0.88601 -3.01978,1.78618 -11.25568,4.30342 -15.34583,4.69035 -2.98388,0.28227 -9.69958,0.51059 -10.45104,0.35531 z"
         id="path139"
         inkscape:connector-curvature="0" />
    </g>
  </g>
</svg>
